<svg width="19" height="14" viewBox="0 0 19 14" fill="none" xmlns="http://www.w3.org/2000/svg">
<path d="M8.23588 0.881467C8.35235 0.937579 8.45065 1.0254 8.51948 1.13484C8.58831 1.24429 8.62488 1.37093 8.625 1.50022V12.5002C8.62482 12.6296 8.58813 12.7563 8.51917 12.8657C8.45021 12.9752 8.35177 13.063 8.23515 13.119C8.11854 13.175 7.98849 13.1969 7.85995 13.1824C7.73141 13.1678 7.60959 13.1172 7.5085 13.0365L4.25938 10.4377H1.0625C0.880164 10.4377 0.705295 10.3653 0.576364 10.2364C0.447433 10.1074 0.375 9.93255 0.375 9.75022V4.25022C0.375 4.06788 0.447433 3.89301 0.576364 3.76408C0.705295 3.63515 0.880164 3.56272 1.0625 3.56272H4.25938L7.5085 0.963967C7.60966 0.8831 7.73161 0.832453 7.86029 0.817857C7.98898 0.803261 8.11917 0.825311 8.23588 0.881467ZM18.0492 3.76347C18.1133 3.82733 18.1641 3.9032 18.1987 3.98672C18.2334 4.07025 18.2512 4.15979 18.2512 4.25022C18.2512 4.34065 18.2334 4.43019 18.1987 4.51371C18.1641 4.59724 18.1133 4.6731 18.0492 4.73697L15.7846 7.00022L18.0492 9.26347C18.1783 9.39256 18.2509 9.56765 18.2509 9.75022C18.2509 9.93278 18.1783 10.1079 18.0492 10.237C17.9202 10.3661 17.7451 10.4386 17.5625 10.4386C17.3799 10.4386 17.2048 10.3661 17.0758 10.237L14.8125 7.97234L12.5492 10.237C12.4202 10.3661 12.2451 10.4386 12.0625 10.4386C11.8799 10.4386 11.7048 10.3661 11.5758 10.237C11.4467 10.1079 11.3741 9.93278 11.3741 9.75022C11.3741 9.56765 11.4467 9.39256 11.5758 9.26347L13.8404 7.00022L11.5758 4.73697C11.5118 4.67305 11.4611 4.59716 11.4265 4.51364C11.3919 4.43013 11.3741 4.34062 11.3741 4.25022C11.3741 4.15982 11.3919 4.07031 11.4265 3.98679C11.4611 3.90327 11.5118 3.82739 11.5758 3.76347C11.7048 3.63437 11.8799 3.56185 12.0625 3.56185C12.1529 3.56185 12.2424 3.57965 12.3259 3.61425C12.4094 3.64884 12.4853 3.69955 12.5492 3.76347L14.8125 6.02809L17.0758 3.76347C17.1396 3.69944 17.2155 3.64865 17.299 3.61399C17.3825 3.57933 17.4721 3.56149 17.5625 3.56149C17.6529 3.56149 17.7425 3.57933 17.826 3.61399C17.9095 3.64865 17.9854 3.69944 18.0492 3.76347Z" fill="white"/>
</svg>
