<svg width="73" height="22" viewBox="0 0 73 22" fill="none" xmlns="http://www.w3.org/2000/svg">
<path d="M59.1152 2.65254C57.3292 2.87487 55.68 3.42687 54.7148 4.11687C53.666 4.86821 52.944 5.68087 52.0852 7.09154C50.9604 8.92387 50.7324 9.72887 50.7324 11.8449C50.7324 13.4319 50.8464 13.9225 51.5152 15.3255C51.918 16.1612 52.0396 16.3452 52.564 16.8589C53.2556 17.5565 54.1752 18.2235 54.958 18.5992C55.7256 18.9672 56.402 19.0209 59.7232 18.9979L62.3376 18.9749L63.2116 16.8895L64.078 14.7965H66.3428C68.4556 14.7965 68.6152 14.8042 68.6152 14.9269C68.6152 15.0035 68.6836 15.8775 68.7672 16.8665C68.8508 17.8555 68.9192 18.6912 68.9192 18.7219C68.9192 18.7602 69.74 18.7832 70.7432 18.7832C72.3696 18.7832 72.5672 18.7679 72.5672 18.6605C72.5672 18.5149 70.7736 4.04021 70.652 3.23521L70.576 2.68321H68.3948H66.2136L65.1496 4.96787C63.4928 8.54054 59.8828 15.6169 59.6928 15.6705C59.366 15.7625 57.846 15.7165 57.4888 15.6092C57.2912 15.5479 56.8732 15.3025 56.5692 15.0649C55.262 14.0529 54.7908 13.1712 54.6692 11.4999C54.6008 10.5185 54.6996 10.1045 55.2468 8.96987C55.6724 8.08821 55.7712 7.95787 56.4096 7.32154C57.5116 6.21754 58.378 5.85721 60.1032 5.77287C61.1824 5.72687 61.912 5.81121 62.7176 6.09487C63.014 6.20221 63.2724 6.25587 63.3028 6.22521C63.3636 6.16387 64.2072 3.59554 64.2072 3.48821C64.2072 3.39621 63.0748 2.95154 62.4136 2.78287C61.9728 2.67554 59.6852 2.58354 59.1152 2.65254ZM67.8932 6.45521C67.9312 6.56254 68.372 11.8295 68.3492 11.8679C68.3416 11.8755 67.65 11.8755 66.814 11.8679L65.3016 11.8449L66.3428 9.31487C66.9128 7.91954 67.4372 6.69287 67.5056 6.57021C67.6272 6.35554 67.8324 6.29421 67.8932 6.45521Z" fill="white"/>
<path d="M4.12987 2.85189C3.96267 3.55722 0.671875 18.5686 0.671875 18.6299C0.671875 18.7219 4.36547 18.7372 4.41867 18.6452C4.44147 18.6146 4.75307 17.2346 5.12547 15.5786L5.79427 12.5732H8.58347C11.1751 12.5732 11.3803 12.5656 11.4183 12.4352C11.4411 12.3662 11.5627 11.7376 11.6919 11.0399C11.8211 10.3422 11.9503 9.69822 11.9731 9.59855L12.0111 9.42989H9.26747C7.04827 9.42989 6.52387 9.40689 6.52387 9.33022C6.52387 9.23055 7.17747 6.21755 7.25347 5.95689C7.29147 5.83422 7.51187 5.82655 10.5595 5.82655H13.8199L13.7819 5.99522C13.6451 6.58555 11.0079 18.5992 11.0079 18.6452C11.0079 18.6836 13.1891 18.6989 15.8567 18.6912L20.6979 18.6682L20.9791 17.2882C21.1311 16.5292 21.2603 15.8316 21.2603 15.7319L21.2679 15.5632H18.3799C16.7915 15.5632 15.4919 15.5402 15.4919 15.5172C15.4919 15.4712 18.1823 3.25055 18.2811 2.85189L18.3191 2.68322H11.2435H4.16787L4.12987 2.85189Z" fill="white"/>
<path d="M25.1446 0.935238C25.0458 1.45657 24.1642 6.24057 23.1686 11.5766L21.375 21.2749L27.8274 21.2979C31.3842 21.3056 34.3026 21.2979 34.3254 21.2749C34.371 21.2366 35.017 17.8172 35.0246 17.6102C35.0246 17.4876 34.7738 17.4799 30.761 17.4799H26.4974L26.5354 17.3036C26.5582 17.2116 26.771 16.0462 27.0066 14.7199C27.2422 13.3936 27.455 12.2819 27.4702 12.2512C27.493 12.2129 29.4234 12.1899 31.7566 12.1899H36.005L36.081 11.7836C36.195 11.2239 36.6966 8.50224 36.6966 8.46391C36.6966 8.44857 34.7814 8.43324 32.4406 8.43324C28.2226 8.43324 28.1846 8.43324 28.1846 8.27991C28.1846 8.14957 28.7622 4.79924 28.9142 4.04024L28.9598 3.83324H33.9302C37.4262 3.83324 38.9006 3.85624 38.9006 3.91757C38.9006 3.96357 38.1862 7.87357 37.3046 12.6116C36.4306 17.3419 35.7086 21.2366 35.7086 21.2672C35.7086 21.2902 38.551 21.3056 42.0318 21.2979L48.355 21.2749L48.7046 19.3966L49.0542 17.5182L44.9654 17.4952C41.3478 17.4799 40.8766 17.4646 40.8766 17.3572C40.8766 17.2499 41.667 12.7266 41.7506 12.3586L41.7886 12.1899H45.6874H49.5786L49.9054 10.4036C50.0802 9.4299 50.2246 8.56357 50.2246 8.48691C50.2246 8.36424 49.989 8.35657 46.3486 8.35657H42.4726L42.5182 8.05757C42.541 7.8889 42.7234 6.88457 42.921 5.81124L43.2706 3.87157L47.3366 3.83324C50.8706 3.80257 51.4026 3.77957 51.4254 3.6799C51.433 3.61857 51.5926 2.7599 51.775 1.77857L52.1018 -9.53674e-05H38.7106H25.3194L25.1446 0.935238Z" fill="white"/>
</svg>
