<svg width="20" height="20" viewBox="0 0 20 20" fill="none" xmlns="http://www.w3.org/2000/svg">
<path d="M13.4738 2.00003L12.1134 4.92167L13.5808 5.50558L14.9412 2.58394L13.4738 2L13.4738 2.00003ZM6.53419 2.01168L5.05627 2.57229L6.36243 5.51498L7.84035 4.95437L6.53423 2.01168H6.53419ZM7.67254 2.22796L7.3729 2.34382L8.43285 4.73247L8.67601 5.28062L8.08358 5.50391L6.60577 6.06452L6.01287 6.2893L5.76972 5.7413L4.71736 3.37114L4.30841 3.52931C4.94672 4.31808 5.2334 5.30316 5.10939 6.28153C4.98537 7.2599 4.4601 8.15702 3.64183 8.788V10.0301H7.08693V12.6884H3.64179V13.1742H7.08689V15.8362H3.64179V17.1419C4.26074 17.7141 7.13055 18 10.0004 18C12.8703 18 15.7401 17.7141 16.3591 17.1419V15.8362H12.9139V13.1746H16.3591V12.6883H12.9128V10.0267H16.3578V8.7849C15.5396 8.15392 15.0143 7.2568 14.8903 6.27843C14.7663 5.30006 15.053 4.31498 15.6913 3.52621L15.2735 3.36443L14.1682 5.73786L13.9146 6.28232L13.3257 6.0479L11.8604 5.46685L11.2715 5.23242L11.5251 4.68799L12.6187 2.33895L12.3279 2.22792C12.0973 2.61167 11.7599 2.93143 11.3506 3.15406C10.9413 3.37669 10.4751 3.49408 10.0002 3.49408C9.52535 3.49408 9.05912 3.37669 8.64985 3.15406C8.24058 2.93143 7.90315 2.61171 7.67254 2.22796ZM3 10.6193V12.0962H6.44632V10.6193H3ZM13.5537 10.6193V12.0962H17V10.6193H13.5537ZM3 13.7671V15.244H6.44632V13.7671H3V13.7671ZM13.5537 13.7671V15.244H17V13.7671H13.5537V13.7671Z" fill="white"/>
</svg>
