<svg width="15" height="16" viewBox="0 0 15 16" fill="none" xmlns="http://www.w3.org/2000/svg">
<path d="M3.75 13C4.09722 13 4.3925 12.8783 4.63583 12.635C4.87917 12.3917 5.00056 12.0967 5 11.75C5 11.4028 4.87833 11.1075 4.635 10.8642C4.39167 10.6208 4.09667 10.4994 3.75 10.5C3.40278 10.5 3.1075 10.6217 2.86417 10.865C2.62083 11.1083 2.49944 11.4033 2.5 11.75C2.5 12.0972 2.62167 12.3925 2.865 12.6358C3.10833 12.8792 3.40333 13.0006 3.75 13ZM3.75 5.5C4.09722 5.5 4.3925 5.37833 4.63583 5.135C4.87917 4.89167 5.00056 4.59667 5 4.25C5 3.90278 4.87833 3.6075 4.635 3.36417C4.39167 3.12083 4.09667 2.99944 3.75 3C3.40278 3 3.1075 3.12167 2.86417 3.365C2.62083 3.60833 2.49944 3.90333 2.5 4.25C2.5 4.59722 2.62167 4.8925 2.865 5.13583C3.10833 5.37917 3.40333 5.50056 3.75 5.5ZM7.5 9.25C7.84722 9.25 8.1425 9.12833 8.38583 8.885C8.62917 8.64167 8.75056 8.34667 8.75 8C8.75 7.65278 8.62833 7.3575 8.385 7.11417C8.14167 6.87083 7.84667 6.74944 7.5 6.75C7.15278 6.75 6.8575 6.87167 6.61417 7.115C6.37083 7.35833 6.24944 7.65333 6.25 8C6.25 8.34722 6.37167 8.6425 6.615 8.88583C6.85833 9.12917 7.15333 9.25056 7.5 9.25ZM11.25 13C11.5972 13 11.8925 12.8783 12.1358 12.635C12.3792 12.3917 12.5006 12.0967 12.5 11.75C12.5 11.4028 12.3783 11.1075 12.135 10.8642C11.8917 10.6208 11.5967 10.4994 11.25 10.5C10.9028 10.5 10.6075 10.6217 10.3642 10.865C10.1208 11.1083 9.99944 11.4033 10 11.75C10 12.0972 10.1217 12.3925 10.365 12.6358C10.6083 12.8792 10.9033 13.0006 11.25 13ZM11.25 5.5C11.5972 5.5 11.8925 5.37833 12.1358 5.135C12.3792 4.89167 12.5006 4.59667 12.5 4.25C12.5 3.90278 12.3783 3.6075 12.135 3.36417C11.8917 3.12083 11.5967 2.99944 11.25 3C10.9028 3 10.6075 3.12167 10.3642 3.365C10.1208 3.60833 9.99944 3.90333 10 4.25C10 4.59722 10.1217 4.8925 10.365 5.13583C10.6083 5.37917 10.9033 5.50056 11.25 5.5ZM0 15.5V0.5H15V15.5H0Z" fill="white"/>
</svg>
