<svg width="19" height="13" viewBox="0 0 19 13" fill="none" xmlns="http://www.w3.org/2000/svg">
<path d="M5.7 6.5C7.53766 6.5 9.025 5.15804 9.025 3.5C9.025 1.84196 7.53766 0.5 5.7 0.5C3.86234 0.5 2.375 1.84196 2.375 3.5C2.375 5.15804 3.86234 6.5 5.7 6.5ZM7.98 7.35714H7.73359C7.11609 7.625 6.43031 7.78571 5.7 7.78571C4.96969 7.78571 4.28687 7.625 3.66641 7.35714H3.42C1.53187 7.35714 0 8.73929 0 10.4429V11.2143C0 11.9241 0.638281 12.5 1.425 12.5H9.975C10.7617 12.5 11.4 11.9241 11.4 11.2143V10.4429C11.4 8.73929 9.86812 7.35714 7.98 7.35714ZM14.25 6.5C15.8234 6.5 17.1 5.34821 17.1 3.92857C17.1 2.50893 15.8234 1.35714 14.25 1.35714C12.6766 1.35714 11.4 2.50893 11.4 3.92857C11.4 5.34821 12.6766 6.5 14.25 6.5ZM15.675 7.35714H15.5622C15.1495 7.48571 14.7131 7.57143 14.25 7.57143C13.7869 7.57143 13.3505 7.48571 12.9378 7.35714H12.825C12.2194 7.35714 11.6612 7.51518 11.1714 7.76964C11.8958 8.47411 12.35 9.40893 12.35 10.4429V11.4714C12.35 11.5304 12.3352 11.5866 12.3322 11.6429H17.575C18.3617 11.6429 19 11.067 19 10.3571C19 8.69911 17.5127 7.35714 15.675 7.35714Z" fill="white"/>
</svg>
