<svg width="20" height="20" viewBox="0 0 20 20" fill="none" xmlns="http://www.w3.org/2000/svg">
<path d="M7.70833 18.3332L7.375 15.6665C7.19444 15.5971 7.02417 15.5137 6.86417 15.4165C6.70417 15.3193 6.54806 15.2151 6.39583 15.104L3.91667 16.1457L1.625 12.1873L3.77083 10.5623C3.75694 10.4651 3.75 10.3712 3.75 10.2807V9.719C3.75 9.62845 3.75694 9.53456 3.77083 9.43734L1.625 7.81234L3.91667 3.854L6.39583 4.89567C6.54861 4.78456 6.70833 4.68039 6.875 4.58317C7.04167 4.48595 7.20833 4.40261 7.375 4.33317L7.70833 1.6665H12.2917L12.625 4.33317C12.8056 4.40261 12.9758 4.48595 13.1358 4.58317C13.2958 4.68039 13.4519 4.78456 13.6042 4.89567L16.0833 3.854L18.375 7.81234L16.2292 9.43734C16.2431 9.53456 16.25 9.62845 16.25 9.719V10.2807C16.25 10.3712 16.2361 10.4651 16.2083 10.5623L18.3542 12.1873L16.0625 16.1457L13.6042 15.104C13.4514 15.2151 13.2917 15.3193 13.125 15.4165C12.9583 15.5137 12.7917 15.5971 12.625 15.6665L12.2917 18.3332H7.70833ZM10.0417 12.9165C10.8472 12.9165 11.5347 12.6318 12.1042 12.0623C12.6736 11.4929 12.9583 10.8054 12.9583 9.99984C12.9583 9.19428 12.6736 8.50678 12.1042 7.93734C11.5347 7.36789 10.8472 7.08317 10.0417 7.08317C9.22222 7.08317 8.53111 7.36789 7.96833 7.93734C7.40556 8.50678 7.12444 9.19428 7.125 9.99984C7.125 10.8054 7.40611 11.4929 7.96833 12.0623C8.53056 12.6318 9.22167 12.9165 10.0417 12.9165Z" fill="white"/>
</svg>
