<svg width="20" height="20" viewBox="0 0 20 20" fill="none" xmlns="http://www.w3.org/2000/svg">
<path d="M11.9521 11.6724L12.839 11.7655V18.9844L10.3893 16.3686V12.207L11.1008 12.5545L11.9521 11.6724ZM8.04779 11.6724L7.16045 11.7655V18.9844L9.6101 16.3686V12.207L8.89865 12.5545L8.04779 11.6724ZM14.7658 7.14977L15.0528 8.14875L14.1912 8.72961L14.1191 9.76754L13.1109 10.0185L12.6889 10.9683L11.6553 10.8591L10.9336 11.6047L9.99994 11.1486L9.06627 11.6047L8.34459 10.8566L7.311 10.9658L6.889 10.0161L5.8808 9.76754L5.80865 8.73105L4.94467 8.14824L5.2317 7.1493L4.62256 6.30773L5.23365 5.46711L4.94467 4.47012L5.8067 3.88926L5.87885 2.85273L6.889 2.60422L7.311 1.65449L8.34459 1.76363L9.06627 1.01562L9.99994 1.47176L10.9336 1.01562L11.6553 1.76363L12.6889 1.65449L13.1109 2.60422L14.1191 2.8552L14.1912 3.89168L15.0528 4.47254L14.7658 5.47152L15.3773 6.30773L14.7658 7.14977ZM12.8433 6.30773C12.8433 5.7496 12.6778 5.20401 12.3678 4.73994C12.0577 4.27587 11.6169 3.91418 11.1013 3.70059C10.5857 3.487 10.0183 3.43112 9.47085 3.54C8.92345 3.64889 8.42062 3.91765 8.02596 4.31231C7.63131 4.70697 7.36254 5.20979 7.25366 5.7572C7.14477 6.3046 7.20065 6.872 7.41424 7.38765C7.62783 7.90329 7.98953 8.34402 8.45359 8.6541C8.91766 8.96418 9.46326 9.12969 10.0214 9.12969C10.7695 9.12852 11.4866 8.83083 12.0155 8.30187C12.5445 7.7729 12.8422 7.0558 12.8433 6.30773ZM10.0214 4.26543C9.61747 4.26543 9.22262 4.38521 8.88677 4.60961C8.55092 4.83402 8.28916 5.15297 8.13458 5.52614C7.98001 5.89932 7.93956 6.30995 8.01836 6.70611C8.09716 7.10227 8.29166 7.46616 8.57727 7.75178C8.86289 8.0374 9.22678 8.23191 9.62294 8.31071C10.0191 8.38952 10.4297 8.34908 10.8029 8.19451C11.1761 8.03995 11.495 7.77819 11.7194 7.44235C11.9439 7.1065 12.0636 6.71165 12.0637 6.30773C12.0621 5.7667 11.8464 5.24829 11.4637 4.86586C11.081 4.48342 10.5624 4.26808 10.0214 4.26691V4.26543Z" fill="white"/>
</svg>
