<svg width="505" height="603" viewBox="0 0 505 603" fill="none" xmlns="http://www.w3.org/2000/svg">
<path d="M0 301L5.30573 302.895V315.022L0 313.127V301Z" fill="white"/>
<path d="M0 315.022L5.30573 316.917V329.045L0 327.15V315.022Z" fill="white"/>
<path d="M0 329.045L5.30573 330.94V343.067L0 341.172V329.045Z" fill="white"/>
<path d="M499 301L504.306 302.895V315.022L499 313.127V301Z" fill="white"/>
<path d="M499 315.022L504.306 316.917V329.045L499 327.15V315.022Z" fill="white"/>
<path d="M499 329.045L504.306 330.94V343.067L499 341.172V329.045Z" fill="white"/>
<path d="M246 5.30566L247.895 -6.81877e-05L260.022 -6.81877e-05L258.127 5.30566L246 5.30566Z" fill="white"/>
<path d="M246 602.306L247.895 597H260.022L258.127 602.306H246Z" fill="white"/>
</svg>
