<svg width="339" height="187" viewBox="0 0 339 187" fill="none" xmlns="http://www.w3.org/2000/svg">
<path d="M0 10C0 4.47715 4.47715 0 10 0H329C334.523 0 339 4.47715 339 10V174.127C339 180.653 332.85 185.43 326.527 183.816L317.586 181.534C315.963 181.119 314.262 181.119 312.639 181.534L293.65 186.381C292.059 186.787 290.391 186.795 288.796 186.404L268.84 181.511C267.211 181.112 265.507 181.128 263.886 181.56L246.343 186.23C244.457 186.732 242.465 186.672 240.613 186.055L228.044 181.873C226.143 181.24 224.097 181.193 222.169 181.737L206.54 186.15C204.581 186.704 202.499 186.646 200.574 185.984L189.174 182.068C186.979 181.314 184.591 181.347 182.418 182.161L172.596 185.84C170.586 186.593 168.386 186.679 166.323 186.086L151.078 181.698C149.271 181.178 147.354 181.178 145.547 181.698L129.891 186.204C128.084 186.724 126.166 186.724 124.359 186.204L108.703 181.698C106.896 181.178 104.979 181.178 103.172 181.698L87.5158 186.204C85.7086 186.724 83.7914 186.724 81.9842 186.204L66.3283 181.698C64.5211 181.178 62.6039 181.178 60.7967 181.698L45.1408 186.204C43.3336 186.724 41.4164 186.724 39.6092 186.204L23.9533 181.698C22.1461 181.178 20.2289 181.178 18.4217 181.698L12.7658 183.326C6.37341 185.166 0 180.368 0 173.716V10Z" fill="white" fill-opacity="0.06"/>
<path d="M10 0.5H329C334.247 0.5 338.5 4.75329 338.5 10V174.127C338.5 180.326 332.657 184.865 326.65 183.331L317.71 181.049C316.006 180.614 314.22 180.614 312.516 181.049L293.527 185.897C292.015 186.283 290.43 186.29 288.915 185.918L268.959 181.025C267.249 180.606 265.46 180.624 263.758 181.077L246.214 185.747C244.422 186.224 242.53 186.166 240.771 185.581L228.202 181.398C226.206 180.734 224.057 180.685 222.033 181.256L206.404 185.669C204.543 186.195 202.565 186.14 200.736 185.511L189.337 181.595C187.032 180.804 184.524 180.838 182.242 181.693L172.421 185.372C170.511 186.087 168.421 186.169 166.461 185.605L151.217 181.218C149.319 180.672 147.306 180.672 145.408 181.218L129.752 185.724C128.036 186.218 126.214 186.218 124.498 185.724L108.842 181.218C106.944 180.672 104.931 180.672 103.033 181.218L87.3775 185.724C85.6607 186.218 83.8393 186.218 82.1225 185.724L66.4666 181.218C64.569 180.672 62.556 180.672 60.6585 181.218L45.0025 185.724C43.2857 186.218 41.4643 186.218 39.7475 185.724L24.0916 181.218C22.194 180.672 20.181 180.672 18.2834 181.218L12.6275 182.845C6.55474 184.593 0.5 180.035 0.5 173.716V10C0.5 4.75329 4.75329 0.5 10 0.5Z" stroke="white" stroke-opacity="0.15"/>
</svg>
