<svg width="192" height="224" viewBox="0 0 192 224" fill="none" xmlns="http://www.w3.org/2000/svg">
<g clip-path="url(#clip0_255_4517)">
<path d="M39.7704 191.955L14.8953 206.45L0 173.396L40.962 175.564L39.7704 191.955Z" fill="white"/>
<path d="M19.5127 142.917L91.0098 223.79L55.2613 134.518L19.5127 142.917Z" fill="white"/>
<path d="M55.2613 134.518L19.5127 142.917V71.5264L65.0921 104.716L55.2613 134.518Z" fill="white"/>
<path d="M22.6406 80.873V137.904L37.3871 134.518L22.6406 80.873Z" fill="white"/>
<path d="M39.7702 191.956L86.9883 223.79L14.895 206.451L39.7702 191.956Z" fill="white"/>
<path d="M3.27686 175.699L14.7462 202.522L23.6834 196.832L3.27686 175.699Z" fill="white"/>
<path d="M152.23 191.955L177.105 206.45L192 173.396L151.038 175.564L152.23 191.955Z" fill="white"/>
<path d="M172.487 142.917L100.99 223.79L136.739 134.518L172.487 142.917Z" fill="white"/>
<path d="M136.739 134.518L172.487 142.917V71.5264L126.908 104.716L136.739 134.518Z" fill="white"/>
<path d="M152.23 191.956L105.012 223.79L177.105 206.451L152.23 191.956Z" fill="white"/>
<path d="M60.0278 73.423L95.9254 0L131.972 73.423L101.288 91.1692L60.0278 73.423Z" fill="white"/>
<path d="M95.9254 4.74121L91.7547 79.5188L68.2202 68.1397L95.9254 4.74121Z" fill="white"/>
<path d="M60.0278 73.4229L95.9254 223.79L101.288 91.169L60.0278 73.4229Z" fill="white"/>
</g>
<defs>
<clipPath id="clip0_255_4517">
<rect width="192" height="224" fill="white"/>
</clipPath>
</defs>
</svg>
