<svg width="7" height="263" viewBox="0 0 7 263" fill="none" xmlns="http://www.w3.org/2000/svg">
<rect width="1.01423" height="259.643" transform="matrix(1 0 0 -1 2.93634 260.658)" fill="white" fill-opacity="0.06"/>
<path d="M0.907898 263.001L6.28914 261.079L6.28914 248.779L0.907898 250.701L0.907898 263.001Z" fill="white"/>
<path d="M0.907898 41.8975L6.28914 39.9756L6.28914 27.6756L0.907898 29.5975L0.907898 41.8975Z" fill="white"/>
<path d="M0.907898 141.002L6.28914 139.08L6.28914 126.78L0.907898 128.702L0.907898 141.002Z" fill="white"/>
<path d="M0.907898 249.163L6.28914 247.241L6.28914 234.941L0.907898 236.863L0.907898 249.163Z" fill="white"/>
<path d="M0.907898 28.0596L6.28914 26.1377L6.28914 13.8377L0.907898 15.7596L0.907898 28.0596Z" fill="white"/>
<path d="M0.907898 235.325L6.28914 233.403L6.28914 221.103L0.907898 223.025L0.907898 235.325Z" fill="white"/>
<path d="M0.907898 14.2217L6.28914 12.2998L6.28914 -0.000184506L0.907898 1.92169L0.907898 14.2217Z" fill="white"/>
</svg>
