<svg width="50" height="50" viewBox="0 0 50 50" fill="none" xmlns="http://www.w3.org/2000/svg">
<path d="M42.4952 11.0504V7.50467H39.9892V4.99867C39.9892 2.2394 37.7498 0 34.9905 0H7.50452C3.37229 0 0.0131836 3.3591 0.0131836 7.50467C0.0131836 11.6502 3.35896 14.996 7.50452 14.996C8.87749 14.996 10.0105 16.1157 10.0105 17.502V22.5007H7.51785V26.0464C3.10569 27.9659 0.0131836 32.3514 0.0131836 37.4967C0.0131836 44.3882 5.61169 50 12.5165 50C19.4213 50 25.0198 44.4015 25.0198 37.4967C25.0198 32.3647 21.9273 27.9792 17.5152 26.0464V22.5007H14.9959V17.502C14.9959 13.3698 11.6367 9.99733 7.49119 9.99733C6.11822 9.99733 4.98519 8.87763 4.98519 7.49134C4.98519 6.11837 6.10489 4.98534 7.49119 4.98534H34.9905V7.49134H32.4845V11.0371C28.0724 12.9565 24.9799 17.342 24.9799 22.4873C24.9799 29.3788 30.5784 34.9907 37.4832 34.9907C44.388 34.9907 49.9865 29.3922 49.9865 22.4873C49.9865 17.3554 46.894 12.9699 42.4952 11.0504ZM19.9945 37.4967C19.9945 41.6156 16.6221 45.0013 12.4899 45.0013C8.35762 45.0013 4.99852 41.6156 4.99852 37.4967C4.99852 33.3511 8.37095 29.992 12.5032 29.992C16.6354 29.992 19.9945 33.3378 19.9945 37.4967ZM37.4965 29.992C33.3776 29.992 29.9919 26.6196 29.9919 22.4873C29.9919 18.3418 33.3643 14.9827 37.4965 14.9827C41.6287 14.9827 45.0012 18.3284 45.0012 22.4873C44.9879 26.6196 41.6154 29.992 37.4965 29.992Z" fill="#1C5FE2"/>
</svg>
