<svg width="24" height="24" viewBox="0 0 24 24" fill="none" xmlns="http://www.w3.org/2000/svg">
<path d="M10 3C9.71667 3 9.479 2.904 9.287 2.712C9.095 2.52 8.99933 2.28267 9 2C9 1.71667 9.096 1.479 9.288 1.287C9.48 1.095 9.71733 0.999337 10 1H14C14.2833 1 14.521 1.096 14.713 1.288C14.905 1.48 15.0007 1.71734 15 2C15 2.28334 14.904 2.521 14.712 2.713C14.52 2.905 14.2827 3.00067 14 3H10ZM12 14C12.2833 14 12.521 13.904 12.713 13.712C12.905 13.52 13.0007 13.2827 13 13V9C13 8.71667 12.904 8.479 12.712 8.287C12.52 8.095 12.2827 7.99934 12 8C11.7167 8 11.479 8.096 11.287 8.288C11.095 8.48 10.9993 8.71734 11 9V13C11 13.2833 11.096 13.521 11.288 13.713C11.48 13.905 11.7173 14.0007 12 14ZM12 22C10.7667 22 9.604 21.7623 8.512 21.287C7.42 20.8117 6.466 20.166 5.65 19.35C4.83333 18.5333 4.18733 17.579 3.712 16.487C3.23667 15.395 2.99933 14.2327 3 13C3 11.7667 3.23767 10.604 3.713 9.512C4.18833 8.42 4.834 7.466 5.65 6.65C6.46667 5.83334 7.421 5.18734 8.513 4.712C9.605 4.23667 10.7673 3.99934 12 4C13.0333 4 14.025 4.16667 14.975 4.5C15.925 4.83334 16.8167 5.31667 17.65 5.95L18.375 5.225C18.5583 5.04167 18.7833 4.95 19.05 4.95C19.3167 4.95 19.55 5.05 19.75 5.25C19.9333 5.43334 20.025 5.66667 20.025 5.95C20.025 6.23334 19.9333 6.46667 19.75 6.65L19.05 7.35C19.6833 8.18334 20.1667 9.075 20.5 10.025C20.8333 10.975 21 11.9667 21 13C21 14.2333 20.7623 15.396 20.287 16.488C19.8117 17.58 19.166 18.534 18.35 19.35C17.5333 20.1667 16.579 20.8127 15.487 21.288C14.395 21.7633 13.2327 22.0007 12 22Z" fill="white"/>
</svg>
