<svg width="6" height="14" viewBox="0 0 6 14" fill="none" xmlns="http://www.w3.org/2000/svg">
<path d="M2.48864 13.5V11.9833C1.84091 11.863 1.30966 11.6012 0.894886 11.1979C0.480114 10.7947 0.181818 10.2861 0 9.67222L0.954545 9.25694C1.14773 9.83472 1.42614 10.265 1.78977 10.5479C2.15341 10.8308 2.59091 10.9722 3.10227 10.9722C3.64773 10.9722 4.09659 10.8278 4.44886 10.5389C4.80114 10.25 4.97727 9.85278 4.97727 9.34722C4.97727 8.81759 4.82102 8.40833 4.50852 8.11944C4.19602 7.83056 3.60795 7.53565 2.74432 7.23472C1.92614 6.95787 1.31534 6.59074 0.911932 6.13333C0.508523 5.67593 0.306818 5.10417 0.306818 4.41806C0.306818 3.75602 0.508523 3.20231 0.911932 2.75694C1.31534 2.31157 1.84091 2.0588 2.48864 1.99861V0.5H3.51136V1.99861C4.02273 2.0588 4.46307 2.23634 4.83239 2.53125C5.2017 2.82616 5.48295 3.20231 5.67614 3.65972L4.72159 4.09306C4.5625 3.70787 4.34943 3.42801 4.08239 3.25347C3.81534 3.07894 3.46591 2.99167 3.03409 2.99167C2.51136 2.99167 2.09659 3.11806 1.78977 3.37083C1.48295 3.62361 1.32955 3.96667 1.32955 4.4C1.32955 4.85741 1.5 5.22755 1.84091 5.51042C2.18182 5.79329 2.8125 6.08519 3.73295 6.38611C4.50568 6.63889 5.0767 7.00301 5.44602 7.47847C5.81534 7.95394 6 8.55278 6 9.275C6 10.0333 5.78977 10.6442 5.36932 11.1076C4.94886 11.5711 4.32955 11.869 3.51136 12.0014V13.5H2.48864Z" fill="white"/>
</svg>
