<svg width="18" height="18" viewBox="0 0 18 18" fill="none" xmlns="http://www.w3.org/2000/svg">
<path d="M6.70833 17.3332L6.375 14.6665C6.19444 14.5971 6.02417 14.5137 5.86417 14.4165C5.70417 14.3193 5.54806 14.2151 5.39583 14.104L2.91667 15.1457L0.625 11.1873L2.77083 9.56234C2.75694 9.46511 2.75 9.37123 2.75 9.28067V8.719C2.75 8.62845 2.75694 8.53456 2.77083 8.43734L0.625 6.81234L2.91667 2.854L5.39583 3.89567C5.54861 3.78456 5.70833 3.68039 5.875 3.58317C6.04167 3.48595 6.20833 3.40261 6.375 3.33317L6.70833 0.666504H11.2917L11.625 3.33317C11.8056 3.40261 11.9758 3.48595 12.1358 3.58317C12.2958 3.68039 12.4519 3.78456 12.6042 3.89567L15.0833 2.854L17.375 6.81234L15.2292 8.43734C15.2431 8.53456 15.25 8.62845 15.25 8.719V9.28067C15.25 9.37123 15.2361 9.46511 15.2083 9.56234L17.3542 11.1873L15.0625 15.1457L12.6042 14.104C12.4514 14.2151 12.2917 14.3193 12.125 14.4165C11.9583 14.5137 11.7917 14.5971 11.625 14.6665L11.2917 17.3332H6.70833ZM9.04167 11.9165C9.84722 11.9165 10.5347 11.6318 11.1042 11.0623C11.6736 10.4929 11.9583 9.80539 11.9583 8.99984C11.9583 8.19428 11.6736 7.50678 11.1042 6.93734C10.5347 6.36789 9.84722 6.08317 9.04167 6.08317C8.22222 6.08317 7.53111 6.36789 6.96833 6.93734C6.40556 7.50678 6.12444 8.19428 6.125 8.99984C6.125 9.80539 6.40611 10.4929 6.96833 11.0623C7.53056 11.6318 8.22167 11.9165 9.04167 11.9165Z" fill="white"/>
</svg>
