<svg width="12" height="18" viewBox="0 0 12 18" fill="none" xmlns="http://www.w3.org/2000/svg">
<path d="M7.95258 10.6724L8.83945 10.7655V17.9844L6.38977 15.3686V11.207L7.10125 11.5545L7.95258 10.6724ZM4.04828 10.6724L3.16094 10.7655V17.9844L5.61059 15.3686V11.207L4.89914 11.5545L4.04828 10.6724ZM10.7663 6.14977L11.0532 7.14875L10.1917 7.72961L10.1196 8.76754L9.11137 9.01852L8.68938 9.96828L7.65578 9.8591L6.9341 10.6047L6.00043 10.1486L5.06676 10.6047L4.34508 9.85664L3.31148 9.96582L2.88949 9.01609L1.88129 8.76754L1.80914 7.73105L0.945156 7.14824L1.23219 6.1493L0.623047 5.30773L1.23414 4.46711L0.945156 3.47012L1.80719 2.88926L1.87934 1.85273L2.88949 1.60422L3.31148 0.654492L4.34508 0.763633L5.06676 0.015625L6.00043 0.471758L6.9341 0.015625L7.65578 0.763633L8.68938 0.654492L9.11137 1.60422L10.1196 1.8552L10.1917 2.89168L11.0532 3.47254L10.7663 4.47152L11.3778 5.30773L10.7663 6.14977ZM8.84383 5.30773C8.84383 4.7496 8.67832 4.20401 8.36824 3.73994C8.05816 3.27587 7.61743 2.91418 7.10179 2.70059C6.58615 2.487 6.01874 2.43112 5.47134 2.54C4.92393 2.64889 4.42111 2.91765 4.02645 3.31231C3.6318 3.70697 3.36303 4.20979 3.25415 4.7572C3.14526 5.3046 3.20114 5.872 3.41473 6.38765C3.62832 6.90329 3.99001 7.34402 4.45408 7.6541C4.91815 7.96418 5.46375 8.12969 6.02188 8.12969C6.76995 8.12852 7.48704 7.83083 8.01601 7.30187C8.54497 6.7729 8.84266 6.0558 8.84383 5.30773ZM6.02188 3.26543C5.61796 3.26543 5.2231 3.38521 4.88726 3.60961C4.55141 3.83402 4.28965 4.15297 4.13507 4.52614C3.9805 4.89932 3.94005 5.30995 4.01885 5.70611C4.09765 6.10227 4.29215 6.46616 4.57776 6.75178C4.86337 7.0374 5.22727 7.23191 5.62342 7.31071C6.01958 7.38952 6.43021 7.34908 6.80339 7.19451C7.17657 7.03995 7.49553 6.77819 7.71994 6.44235C7.94435 6.1065 8.06413 5.71165 8.06414 5.30773C8.06259 4.7667 7.84688 4.24829 7.46418 3.86586C7.08147 3.48342 6.56291 3.26808 6.02188 3.26691V3.26543Z" fill="white"/>
</svg>
