<svg width="8" height="14" viewBox="0 0 8 14" fill="none" xmlns="http://www.w3.org/2000/svg">
<path id="Vector" d="M0 2.1C0 1.54305 0.210714 1.0089 0.585787 0.615076C0.960859 0.221249 1.46957 0 2 0H6C6.53043 0 7.03914 0.221249 7.41421 0.615076C7.78929 1.0089 8 1.54305 8 2.1V11.9C8 12.457 7.78929 12.9911 7.41421 13.3849C7.03914 13.7788 6.53043 14 6 14H2C1.46957 14 0.960859 13.7788 0.585787 13.3849C0.210714 12.9911 0 12.457 0 11.9V2.1ZM3.33333 9.8C3.15652 9.8 2.98695 9.87375 2.86193 10.005C2.7369 10.1363 2.66667 10.3143 2.66667 10.5C2.66667 10.6857 2.7369 10.8637 2.86193 10.995C2.98695 11.1263 3.15652 11.2 3.33333 11.2H4.66667C4.84348 11.2 5.01305 11.1263 5.13807 10.995C5.2631 10.8637 5.33333 10.6857 5.33333 10.5C5.33333 10.3143 5.2631 10.1363 5.13807 10.005C5.01305 9.87375 4.84348 9.8 4.66667 9.8H3.33333Z" fill="white"/>
</svg>
