<svg width="20" height="20" viewBox="0 0 20 20" fill="none" xmlns="http://www.w3.org/2000/svg">
<path d="M18 10.7778C18 11.6411 17.288 12.3333 16.4 12.3333H3.6C3.17565 12.3333 2.76869 12.1694 2.46863 11.8777C2.16857 11.586 2 11.1903 2 10.7778C2 10.3652 2.16857 9.96956 2.46863 9.67783C2.76869 9.38611 3.17565 9.22222 3.6 9.22222H10.8L12.8 10.7778L14.8 9.22222H16.4C16.8243 9.22222 17.2313 9.38611 17.5314 9.67783C17.8314 9.96956 18 10.3652 18 10.7778ZM10 3C2.8 3 2.8 7.66667 2.8 7.66667H17.2C17.2 7.66667 17.2 3 10 3ZM2.8 14.6667C2.8 15.9578 3.872 17 5.2 17H14.8C16.128 17 17.2 15.9578 17.2 14.6667V13.8889H2.8V14.6667Z" fill="white"/>
</svg>
