<svg width="16" height="17" viewBox="0 0 16 17" fill="none" xmlns="http://www.w3.org/2000/svg">
<path id="Vector" d="M4.936 1.108C5.90806 0.707959 6.94884 0.501433 8 0.5C9.048 0.5 10.088 0.708 11.064 1.108C12.032 1.508 12.912 2.1 13.656 2.844C14.4 3.588 14.992 4.468 15.392 5.436C15.792 6.412 16 7.452 16 8.5C16 10.62 15.16 12.66 13.656 14.156C12.914 14.8998 12.0324 15.4898 11.0618 15.8921C10.0912 16.2943 9.05066 16.5009 8 16.5C6.94884 16.4986 5.90806 16.292 4.936 15.892C3.96621 15.4895 3.08538 14.8996 2.344 14.156C1.60016 13.414 1.01018 12.5324 0.607937 11.5618C0.20569 10.5912 -0.000907233 9.55066 2.99465e-06 8.5C2.99465e-06 6.38 0.840003 4.34 2.344 2.844C3.088 2.1 3.968 1.508 4.936 1.108ZM8 12.5L9.248 9.764L12 8.5L9.248 7.252L8 4.5L6.744 7.252L4 8.5L6.744 9.764L8 12.5Z" fill="white"/>
</svg>
