<svg width="429" height="428" viewBox="0 0 429 428" fill="none" xmlns="http://www.w3.org/2000/svg">
<path d="M347.434 372.282C348.24 373.244 348.113 374.679 347.141 375.474C339.037 382.106 330.44 388.112 321.425 393.441C320.345 394.079 318.954 393.705 318.327 392.617C317.7 391.529 318.074 390.14 319.155 389.501C327.941 384.305 336.322 378.45 344.223 371.987C345.195 371.192 346.628 371.319 347.434 372.282Z" fill="url(#paint0_linear_59_1848)"/>
<g filter="url(#filter0_d_59_1848)">
<path d="M314.717 394.649C315.321 395.75 314.92 397.133 313.814 397.726C304.582 402.668 294.987 406.903 285.114 410.391C283.93 410.809 282.638 410.173 282.232 408.985C281.827 407.797 282.462 406.506 283.646 406.088C293.27 402.684 302.623 398.557 311.623 393.741C312.73 393.149 314.112 393.549 314.717 394.649Z" fill="url(#paint1_linear_59_1848)"/>
</g>
<path d="M278.92 410.083C279.305 411.278 278.648 412.56 277.449 412.932C267.447 416.032 257.223 418.368 246.867 419.918C245.625 420.104 244.477 419.234 244.305 417.991C244.132 416.747 245.001 415.601 246.243 415.414C256.338 413.9 266.304 411.624 276.055 408.604C277.255 408.233 278.535 408.888 278.92 410.083Z" fill="url(#paint2_linear_59_1848)"/>
<path d="M240.776 418.448C240.927 419.695 240.039 420.828 238.791 420.965C228.381 422.107 217.9 422.455 207.438 422.008C206.183 421.954 205.222 420.882 205.289 419.628C205.356 418.375 206.427 417.414 207.682 417.468C217.881 417.901 228.098 417.561 238.245 416.451C239.493 416.315 240.626 417.202 240.776 418.448Z" fill="url(#paint3_linear_59_1848)"/>
<path d="M201.682 419.402C201.592 420.655 200.504 421.598 199.253 421.495C188.817 420.633 178.461 418.979 168.276 416.547C167.054 416.256 166.315 415.02 166.62 413.802C166.924 412.584 168.159 411.845 169.38 412.137C179.31 414.505 189.404 416.117 199.578 416.96C200.829 417.063 201.772 418.15 201.682 419.402Z" fill="url(#paint4_linear_59_1848)"/>
<g filter="url(#filter1_d_59_1848)">
<path d="M164.202 413.181C163.882 414.395 162.638 415.121 161.428 414.788C151.331 412.009 141.46 408.467 131.901 404.192C130.755 403.68 130.256 402.328 130.781 401.188C131.307 400.048 132.656 399.55 133.802 400.062C143.122 404.227 152.744 407.68 162.586 410.391C163.796 410.725 164.521 411.967 164.202 413.181Z" fill="url(#paint5_linear_59_1848)"/>
</g>
<path d="M127.664 399.721C127.12 400.852 125.761 401.329 124.635 400.772C115.249 396.129 106.229 390.78 97.6538 384.77C96.6257 384.049 96.3927 382.628 97.1246 381.607C97.8564 380.587 99.2759 380.355 100.304 381.075C108.665 386.932 117.458 392.147 126.606 396.675C127.732 397.232 128.208 398.589 127.664 399.721Z" fill="url(#paint6_linear_59_1848)"/>
<path d="M94.5779 379.751C93.8304 380.759 92.4059 380.972 91.4055 380.214C83.061 373.887 75.2094 366.935 67.9186 359.418C67.0445 358.517 67.0832 357.077 67.994 356.213C68.9048 355.349 70.3427 355.387 71.217 356.288C78.326 363.614 85.9797 370.391 94.1126 376.56C95.1128 377.319 95.3254 378.742 94.5779 379.751Z" fill="url(#paint7_linear_59_1848)"/>
<path d="M65.6728 353.725C64.7478 354.574 63.3088 354.513 62.4701 353.579C55.4752 345.786 49.0827 337.473 43.3479 328.711C42.6603 327.66 42.9711 326.254 44.0291 325.578C45.0871 324.902 46.4917 325.212 47.1795 326.263C52.772 334.802 59.0034 342.906 65.8202 350.505C66.6586 351.439 66.5979 352.876 65.6728 353.725Z" fill="url(#paint8_linear_59_1848)"/>
<g filter="url(#filter2_d_59_1848)">
<path d="M42.6896 323.452C41.6234 324.115 40.2205 323.789 39.5693 322.715C34.1383 313.762 29.3957 304.409 25.3824 294.736C24.9012 293.577 25.467 292.252 26.6319 291.784C27.7967 291.316 29.1195 291.881 29.601 293.04C33.5155 302.468 38.1387 311.585 43.4307 320.315C44.0816 321.388 43.7558 322.789 42.6896 323.452Z" fill="url(#paint9_linear_59_1848)"/>
</g>
<path d="M25.9446 290.052C24.7755 290.51 23.4555 289.933 23.0106 288.759C19.3002 278.967 16.3394 268.907 14.1539 258.665C13.8919 257.437 14.6893 256.238 15.92 255.99C17.1507 255.741 18.3485 256.538 18.6108 257.765C20.7438 267.748 23.6299 277.555 27.2445 287.102C27.6891 288.276 27.1137 289.594 25.9446 290.052Z" fill="url(#paint10_linear_59_1848)"/>
<path d="M15.475 253.72C14.2416 253.954 13.0503 253.145 12.8293 251.909C10.9861 241.6 9.92913 231.167 9.66744 220.698C9.63607 219.443 10.6408 218.411 11.8962 218.394C13.1516 218.376 14.1822 219.379 14.2139 220.635C14.4715 230.839 15.5018 241.01 17.2961 251.059C17.5168 252.295 16.7084 253.485 15.475 253.72Z" fill="url(#paint11_linear_59_1848)"/>
<path d="M11.8762 215.534C10.6207 215.534 9.6016 214.516 9.61541 213.261C9.7306 202.789 10.6415 192.342 12.3403 182.009C12.5439 180.77 13.7238 179.944 14.9603 180.161C16.1969 180.378 17.0219 181.557 16.8185 182.796C15.165 192.869 14.2771 203.053 14.1623 213.261C14.1482 214.516 13.1317 215.534 11.8762 215.534Z" fill="url(#paint12_linear_59_1848)"/>
<g filter="url(#filter3_d_59_1848)">
<path d="M15.633 176.526C14.4006 176.287 13.5945 175.093 13.8476 173.863C15.9591 163.606 18.8472 153.525 22.4868 143.706C22.9231 142.529 24.239 141.943 25.4113 142.392C26.5837 142.842 27.1686 144.156 26.7325 145.333C23.187 154.906 20.3717 164.733 18.3109 174.731C18.0575 175.961 16.8654 176.766 15.633 176.526Z" fill="url(#paint13_linear_59_1848)"/>
</g>
<path d="M26.9416 138.518C25.7787 138.045 25.2182 136.718 25.7041 135.56C29.7564 125.904 34.5368 116.57 40.004 107.639C40.6595 106.568 42.0637 106.247 43.1272 106.915C44.1907 107.582 44.5109 108.984 43.8557 110.055C38.5284 118.763 33.8684 127.862 29.9158 137.274C29.4296 138.431 28.1046 138.991 26.9416 138.518Z" fill="url(#paint14_linear_59_1848)"/>
<path d="M44.9848 104.008C43.9327 103.323 43.634 101.914 44.3306 100.87C50.1408 92.1576 56.6047 83.8997 63.6666 76.1673C64.5133 75.2402 65.9528 75.1918 66.8705 76.0486C67.7882 76.9054 67.8365 78.343 66.9901 79.2703C60.1079 86.8096 53.8069 94.8595 48.141 103.351C47.4441 104.395 46.0369 104.693 44.9848 104.008Z" fill="url(#paint15_linear_59_1848)"/>
<path d="M69.3206 73.4697C68.418 72.597 68.3928 71.157 69.2753 70.264C76.6362 62.8159 84.5526 55.938 92.956 49.6898C93.9635 48.9407 95.386 49.1669 96.124 50.1826C96.862 51.1983 96.636 52.6189 95.6287 53.3683C87.4385 59.4611 79.7215 66.1656 72.5443 73.4243C71.6615 74.3171 70.2233 74.3424 69.3206 73.4697Z" fill="url(#paint16_linear_59_1848)"/>
<g filter="url(#filter4_d_59_1848)">
<path d="M100.469 47.1114C99.7573 46.0769 100.019 44.6605 101.061 43.9606C109.755 38.1231 118.88 32.9548 128.357 28.5004C129.493 27.9664 130.842 28.4706 131.364 29.6126C131.885 30.7547 131.381 32.1021 130.245 32.6364C121.008 36.9809 112.113 42.019 103.637 47.7073C102.595 48.4069 101.18 48.146 100.469 47.1114Z" fill="url(#paint17_linear_59_1848)"/>
</g>
<path d="M136.482 27.3596C135.991 26.2037 136.531 24.8681 137.692 24.3908C147.377 20.4094 157.351 17.1699 167.528 14.7003C168.748 14.4043 169.969 15.168 170.251 16.3913C170.534 17.6146 169.771 18.8341 168.551 19.1305C158.632 21.5403 148.909 24.6982 139.467 28.5769C138.305 29.054 136.972 28.5155 136.482 27.3596Z" fill="url(#paint18_linear_59_1848)"/>
<path d="M173.521 15.6641C173.258 14.4363 174.04 13.2269 175.271 12.9778C185.535 10.9006 195.941 9.6065 206.401 9.10666C207.655 9.04673 208.71 10.0277 208.756 11.2824C208.802 12.5371 207.822 13.5902 206.568 13.6505C196.372 14.1402 186.227 15.4017 176.222 17.4242C174.991 17.6729 173.783 16.8918 173.521 15.6641Z" fill="url(#paint19_linear_59_1848)"/>
<path d="M216.266 11.1444C216.266 9.88888 217.283 8.86979 218.539 8.8836C229.01 8.99878 239.457 9.90967 249.79 11.6084C251.029 11.812 251.855 12.9919 251.638 14.2285C251.421 15.465 250.242 16.29 249.003 16.0866C238.93 14.4332 228.746 13.5453 218.539 13.4305C217.283 13.4163 216.266 12.3999 216.266 11.1444Z" fill="url(#paint20_linear_59_1848)"/>
<g filter="url(#filter5_d_59_1848)">
<path d="M256.343 15.1122C256.589 13.8811 257.787 13.0813 259.016 13.341C269.261 15.5072 279.327 18.4489 289.126 22.1408C290.301 22.5834 290.879 23.9024 290.424 25.0723C289.968 26.2423 288.651 26.8202 287.476 26.3778C277.923 22.7813 268.111 19.9137 258.124 17.7996C256.896 17.5396 256.097 16.3433 256.343 15.1122Z" fill="url(#paint21_linear_59_1848)"/>
</g>
<path d="M294.744 26.8113C295.226 25.6521 296.557 25.1019 297.711 25.5967C307.335 29.7236 316.632 34.576 325.521 40.112C326.586 40.7758 326.896 42.1824 326.221 43.2407C325.545 44.2991 324.14 44.6083 323.075 43.9449C314.408 38.5504 305.346 33.8203 295.965 29.795C294.811 29.2999 294.262 27.9706 294.744 26.8113Z" fill="url(#paint22_linear_59_1848)"/>
<path d="M331.211 46.5294C331.918 45.4913 333.332 45.2211 334.363 45.9385C342.956 51.9226 351.082 58.5511 358.671 65.7669C359.581 66.632 359.601 68.0722 358.725 68.9725C357.85 69.8728 356.412 69.8922 355.502 69.0273C348.103 61.9951 340.181 55.5336 331.806 49.6982C330.775 48.9805 330.505 47.5676 331.211 46.5294Z" fill="url(#paint23_linear_59_1848)"/>
<path d="M363.973 74.2622C364.88 73.3944 366.32 73.4256 367.178 74.3424C374.332 81.9892 380.895 90.1687 386.809 98.8102C387.518 99.8463 387.237 101.259 386.193 101.956C385.149 102.654 383.738 102.373 383.029 101.337C377.261 92.9144 370.864 84.941 363.892 77.4851C363.034 76.5681 363.065 75.13 363.973 74.2622Z" fill="url(#paint24_linear_59_1848)"/>
<g filter="url(#filter6_d_59_1848)">
<path d="M388.964 106.217C390.025 105.545 391.431 105.86 392.09 106.929C397.594 115.838 402.411 125.152 406.503 134.792C406.993 135.947 406.438 137.276 405.277 137.754C404.116 138.232 402.789 137.678 402.298 136.522C398.307 127.126 393.611 118.046 388.249 109.36C387.589 108.292 387.903 106.888 388.964 106.217Z" fill="url(#paint25_linear_59_1848)"/>
</g>
<path d="M407.229 142.677C408.402 142.229 409.717 142.817 410.151 143.995C413.776 153.819 416.649 163.904 418.745 174.164C418.997 175.394 418.189 176.587 416.956 176.825C415.723 177.062 414.532 176.255 414.281 175.025C412.235 165.025 409.434 155.193 405.903 145.615C405.469 144.437 406.056 143.124 407.229 142.677Z" fill="url(#paint26_linear_59_1848)"/>
<path d="M418.106 183.353C419.345 183.155 420.512 184 420.696 185.242C422.231 195.6 422.976 206.061 422.926 216.532C422.92 217.788 421.885 218.789 420.629 218.769C419.374 218.749 418.374 217.716 418.38 216.46C418.426 206.252 417.7 196.056 416.206 185.958C416.022 184.716 416.866 183.55 418.106 183.353Z" fill="url(#paint27_linear_59_1848)"/>
<path d="M420.347 226.744C421.601 226.813 422.563 227.885 422.48 229.138C421.791 239.587 420.308 249.968 418.045 260.193C417.774 261.418 416.551 262.178 415.328 261.894C414.105 261.609 413.346 260.387 413.617 259.161C415.82 249.194 417.266 239.074 417.94 228.888C418.023 227.636 419.094 226.675 420.347 226.744Z" fill="url(#paint28_linear_59_1848)"/>
<g filter="url(#filter7_d_59_1848)">
<path d="M413.44 269.358C414.652 269.689 415.367 270.939 415.023 272.147C412.154 282.218 408.524 292.057 404.164 301.577C403.642 302.719 402.286 303.205 401.15 302.67C400.014 302.135 399.529 300.781 400.051 299.639C404.299 290.357 407.838 280.766 410.636 270.949C410.981 269.742 412.229 269.028 413.44 269.358Z" fill="url(#paint29_linear_59_1848)"/>
</g>
<path d="M398.922 307.249C400.044 307.813 400.498 309.179 399.922 310.295C395.12 319.601 389.618 328.529 383.464 337.001C382.726 338.017 381.301 338.225 380.293 337.476C379.285 336.727 379.077 335.304 379.815 334.288C385.812 326.028 391.176 317.325 395.859 308.255C396.435 307.139 397.8 306.686 398.922 307.249Z" fill="url(#paint30_linear_59_1848)"/>
<path d="M376.451 342.481C377.435 343.261 377.601 344.692 376.811 345.667C370.217 353.802 363.014 361.424 355.265 368.467C354.336 369.312 352.898 369.226 352.064 368.288C351.23 367.349 351.315 365.914 352.244 365.069C359.796 358.201 366.818 350.771 373.247 342.843C374.038 341.868 375.467 341.701 376.451 342.481Z" fill="url(#paint31_linear_59_1848)"/>
<defs>
<filter id="filter0_d_59_1848" x="269.11" y="380.468" width="58.8879" height="43.0518" filterUnits="userSpaceOnUse" color-interpolation-filters="sRGB">
<feFlood flood-opacity="0" result="BackgroundImageFix"/>
<feColorMatrix in="SourceAlpha" type="matrix" values="0 0 0 0 0 0 0 0 0 0 0 0 0 0 0 0 0 0 127 0" result="hardAlpha"/>
<feOffset/>
<feGaussianBlur stdDeviation="6.5"/>
<feComposite in2="hardAlpha" operator="out"/>
<feColorMatrix type="matrix" values="0 0 0 0 0.811765 0 0 0 0 0.141176 0 0 0 0 0.988235 0 0 0 0.1 0"/>
<feBlend mode="normal" in2="BackgroundImageFix" result="effect1_dropShadow_59_1848"/>
<feBlend mode="normal" in="SourceGraphic" in2="effect1_dropShadow_59_1848" result="shape"/>
</filter>
<filter id="filter1_d_59_1848" x="117.573" y="386.861" width="59.7047" height="41.0078" filterUnits="userSpaceOnUse" color-interpolation-filters="sRGB">
<feFlood flood-opacity="0" result="BackgroundImageFix"/>
<feColorMatrix in="SourceAlpha" type="matrix" values="0 0 0 0 0 0 0 0 0 0 0 0 0 0 0 0 0 0 127 0" result="hardAlpha"/>
<feOffset/>
<feGaussianBlur stdDeviation="6.5"/>
<feComposite in2="hardAlpha" operator="out"/>
<feColorMatrix type="matrix" values="0 0 0 0 0.811765 0 0 0 0 0.141176 0 0 0 0 0.988235 0 0 0 0.1 0"/>
<feBlend mode="normal" in2="BackgroundImageFix" result="effect1_dropShadow_59_1848"/>
<feBlend mode="normal" in="SourceGraphic" in2="effect1_dropShadow_59_1848" result="shape"/>
</filter>
<filter id="filter2_d_59_1848" x="12.2106" y="278.619" width="44.5547" height="58.1758" filterUnits="userSpaceOnUse" color-interpolation-filters="sRGB">
<feFlood flood-opacity="0" result="BackgroundImageFix"/>
<feColorMatrix in="SourceAlpha" type="matrix" values="0 0 0 0 0 0 0 0 0 0 0 0 0 0 0 0 0 0 127 0" result="hardAlpha"/>
<feOffset/>
<feGaussianBlur stdDeviation="6.5"/>
<feComposite in2="hardAlpha" operator="out"/>
<feColorMatrix type="matrix" values="0 0 0 0 0.811765 0 0 0 0 0.141176 0 0 0 0 0.988235 0 0 0 0.1 0"/>
<feBlend mode="normal" in2="BackgroundImageFix" result="effect1_dropShadow_59_1848"/>
<feBlend mode="normal" in="SourceGraphic" in2="effect1_dropShadow_59_1848" result="shape"/>
</filter>
<filter id="filter3_d_59_1848" x="0.801086" y="129.241" width="39.0757" height="60.3271" filterUnits="userSpaceOnUse" color-interpolation-filters="sRGB">
<feFlood flood-opacity="0" result="BackgroundImageFix"/>
<feColorMatrix in="SourceAlpha" type="matrix" values="0 0 0 0 0 0 0 0 0 0 0 0 0 0 0 0 0 0 127 0" result="hardAlpha"/>
<feOffset/>
<feGaussianBlur stdDeviation="6.5"/>
<feComposite in2="hardAlpha" operator="out"/>
<feColorMatrix type="matrix" values="0 0 0 0 0.811765 0 0 0 0 0.141176 0 0 0 0 0.988235 0 0 0 0.1 0"/>
<feBlend mode="normal" in2="BackgroundImageFix" result="effect1_dropShadow_59_1848"/>
<feBlend mode="normal" in="SourceGraphic" in2="effect1_dropShadow_59_1848" result="shape"/>
</filter>
<filter id="filter4_d_59_1848" x="87.0685" y="15.2871" width="57.501" height="45.8115" filterUnits="userSpaceOnUse" color-interpolation-filters="sRGB">
<feFlood flood-opacity="0" result="BackgroundImageFix"/>
<feColorMatrix in="SourceAlpha" type="matrix" values="0 0 0 0 0 0 0 0 0 0 0 0 0 0 0 0 0 0 127 0" result="hardAlpha"/>
<feOffset/>
<feGaussianBlur stdDeviation="6.5"/>
<feComposite in2="hardAlpha" operator="out"/>
<feColorMatrix type="matrix" values="0 0 0 0 0.811765 0 0 0 0 0.141176 0 0 0 0 0.988235 0 0 0 0.1 0"/>
<feBlend mode="normal" in2="BackgroundImageFix" result="effect1_dropShadow_59_1848"/>
<feBlend mode="normal" in="SourceGraphic" in2="effect1_dropShadow_59_1848" result="shape"/>
</filter>
<filter id="filter5_d_59_1848" x="243.299" y="0.291992" width="60.2809" height="39.2344" filterUnits="userSpaceOnUse" color-interpolation-filters="sRGB">
<feFlood flood-opacity="0" result="BackgroundImageFix"/>
<feColorMatrix in="SourceAlpha" type="matrix" values="0 0 0 0 0 0 0 0 0 0 0 0 0 0 0 0 0 0 127 0" result="hardAlpha"/>
<feOffset/>
<feGaussianBlur stdDeviation="6.5"/>
<feComposite in2="hardAlpha" operator="out"/>
<feColorMatrix type="matrix" values="0 0 0 0 0.811765 0 0 0 0 0.141176 0 0 0 0 0.988235 0 0 0 0.1 0"/>
<feBlend mode="normal" in2="BackgroundImageFix" result="effect1_dropShadow_59_1848"/>
<feBlend mode="normal" in="SourceGraphic" in2="effect1_dropShadow_59_1848" result="shape"/>
</filter>
<filter id="filter6_d_59_1848" x="374.904" y="92.8643" width="44.7773" height="58.0615" filterUnits="userSpaceOnUse" color-interpolation-filters="sRGB">
<feFlood flood-opacity="0" result="BackgroundImageFix"/>
<feColorMatrix in="SourceAlpha" type="matrix" values="0 0 0 0 0 0 0 0 0 0 0 0 0 0 0 0 0 0 127 0" result="hardAlpha"/>
<feOffset/>
<feGaussianBlur stdDeviation="6.5"/>
<feComposite in2="hardAlpha" operator="out"/>
<feColorMatrix type="matrix" values="0 0 0 0 0.811765 0 0 0 0 0.141176 0 0 0 0 0.988235 0 0 0 0.1 0"/>
<feBlend mode="normal" in2="BackgroundImageFix" result="effect1_dropShadow_59_1848"/>
<feBlend mode="normal" in="SourceGraphic" in2="effect1_dropShadow_59_1848" result="shape"/>
</filter>
<filter id="filter7_d_59_1848" x="386.842" y="256.277" width="41.2675" height="59.6104" filterUnits="userSpaceOnUse" color-interpolation-filters="sRGB">
<feFlood flood-opacity="0" result="BackgroundImageFix"/>
<feColorMatrix in="SourceAlpha" type="matrix" values="0 0 0 0 0 0 0 0 0 0 0 0 0 0 0 0 0 0 127 0" result="hardAlpha"/>
<feOffset/>
<feGaussianBlur stdDeviation="6.5"/>
<feComposite in2="hardAlpha" operator="out"/>
<feColorMatrix type="matrix" values="0 0 0 0 0.811765 0 0 0 0 0.141176 0 0 0 0 0.988235 0 0 0 0.1 0"/>
<feBlend mode="normal" in2="BackgroundImageFix" result="effect1_dropShadow_59_1848"/>
<feBlend mode="normal" in="SourceGraphic" in2="effect1_dropShadow_59_1848" result="shape"/>
</filter>
<linearGradient id="paint0_linear_59_1848" x1="350.86" y1="69.7379" x2="403.448" y2="134.579" gradientUnits="userSpaceOnUse">
<stop stop-color="#4974E6"/>
<stop offset="1" stop-color="#8A55E8"/>
</linearGradient>
<linearGradient id="paint1_linear_59_1848" x1="284.366" y1="30.8304" x2="342.56" y2="59.4552" gradientUnits="userSpaceOnUse">
<stop stop-color="#D523FD"/>
<stop offset="1" stop-color="#9B32EF"/>
</linearGradient>
<linearGradient id="paint2_linear_59_1848" x1="350.86" y1="69.7379" x2="403.448" y2="134.579" gradientUnits="userSpaceOnUse">
<stop stop-color="#02AAB0"/>
<stop offset="1" stop-color="#00CDAC"/>
</linearGradient>
<linearGradient id="paint3_linear_59_1848" x1="284.366" y1="30.8304" x2="342.56" y2="59.4552" gradientUnits="userSpaceOnUse">
<stop stop-color="#D31027"/>
<stop offset="1" stop-color="#EA384D"/>
</linearGradient>
<linearGradient id="paint4_linear_59_1848" x1="350.86" y1="69.7379" x2="403.448" y2="134.579" gradientUnits="userSpaceOnUse">
<stop stop-color="#4974E6"/>
<stop offset="1" stop-color="#8A55E8"/>
</linearGradient>
<linearGradient id="paint5_linear_59_1848" x1="350.86" y1="69.7379" x2="403.448" y2="134.579" gradientUnits="userSpaceOnUse">
<stop stop-color="#CF24FC"/>
<stop offset="1" stop-color="#9C31EF"/>
</linearGradient>
<linearGradient id="paint6_linear_59_1848" x1="284.366" y1="30.8304" x2="342.56" y2="59.4552" gradientUnits="userSpaceOnUse">
<stop stop-color="#D31027"/>
<stop offset="1" stop-color="#EA384D"/>
</linearGradient>
<linearGradient id="paint7_linear_59_1848" x1="350.86" y1="69.7379" x2="403.448" y2="134.579" gradientUnits="userSpaceOnUse">
<stop stop-color="#02AAB0"/>
<stop offset="1" stop-color="#00CDAC"/>
</linearGradient>
<linearGradient id="paint8_linear_59_1848" x1="284.366" y1="30.8304" x2="342.56" y2="59.4552" gradientUnits="userSpaceOnUse">
<stop stop-color="#4974E6"/>
<stop offset="1" stop-color="#8B55E9"/>
</linearGradient>
<linearGradient id="paint9_linear_59_1848" x1="350.861" y1="69.7379" x2="403.448" y2="134.579" gradientUnits="userSpaceOnUse">
<stop stop-color="#CF24FC"/>
<stop offset="1" stop-color="#9C31EF"/>
</linearGradient>
<linearGradient id="paint10_linear_59_1848" x1="284.366" y1="30.8304" x2="342.56" y2="59.4552" gradientUnits="userSpaceOnUse">
<stop stop-color="#D31027"/>
<stop offset="1" stop-color="#EA384D"/>
</linearGradient>
<linearGradient id="paint11_linear_59_1848" x1="350.861" y1="69.7379" x2="403.448" y2="134.579" gradientUnits="userSpaceOnUse">
<stop stop-color="#02AAB0"/>
<stop offset="1" stop-color="#00CDAC"/>
</linearGradient>
<linearGradient id="paint12_linear_59_1848" x1="284.366" y1="30.8304" x2="342.56" y2="59.4552" gradientUnits="userSpaceOnUse">
<stop stop-color="#4974E6"/>
<stop offset="1" stop-color="#8B55E9"/>
</linearGradient>
<linearGradient id="paint13_linear_59_1848" x1="350.861" y1="69.7379" x2="403.448" y2="134.579" gradientUnits="userSpaceOnUse">
<stop stop-color="#CF24FC"/>
<stop offset="1" stop-color="#9C31EF"/>
</linearGradient>
<linearGradient id="paint14_linear_59_1848" x1="284.366" y1="30.8304" x2="342.56" y2="59.4552" gradientUnits="userSpaceOnUse">
<stop stop-color="#D31027"/>
<stop offset="1" stop-color="#EA384D"/>
</linearGradient>
<linearGradient id="paint15_linear_59_1848" x1="350.861" y1="69.7379" x2="403.448" y2="134.579" gradientUnits="userSpaceOnUse">
<stop stop-color="#02AAB0"/>
<stop offset="1" stop-color="#00CDAC"/>
</linearGradient>
<linearGradient id="paint16_linear_59_1848" x1="284.366" y1="30.8304" x2="342.56" y2="59.4552" gradientUnits="userSpaceOnUse">
<stop stop-color="#4974E6"/>
<stop offset="1" stop-color="#8B55E9"/>
</linearGradient>
<linearGradient id="paint17_linear_59_1848" x1="350.861" y1="69.7379" x2="403.448" y2="134.579" gradientUnits="userSpaceOnUse">
<stop stop-color="#CF24FC"/>
<stop offset="1" stop-color="#9C31EF"/>
</linearGradient>
<linearGradient id="paint18_linear_59_1848" x1="284.366" y1="30.8304" x2="342.56" y2="59.4552" gradientUnits="userSpaceOnUse">
<stop stop-color="#D31027"/>
<stop offset="1" stop-color="#EA384D"/>
</linearGradient>
<linearGradient id="paint19_linear_59_1848" x1="350.861" y1="69.7379" x2="403.448" y2="134.579" gradientUnits="userSpaceOnUse">
<stop stop-color="#02AAB0"/>
<stop offset="1" stop-color="#00CDAC"/>
</linearGradient>
<linearGradient id="paint20_linear_59_1848" x1="9.60291" y1="215.534" x2="422.928" y2="215.534" gradientUnits="userSpaceOnUse">
<stop stop-color="#E65C00"/>
<stop offset="1" stop-color="#F9D423"/>
</linearGradient>
<linearGradient id="paint21_linear_59_1848" x1="350.861" y1="69.7379" x2="403.448" y2="134.579" gradientUnits="userSpaceOnUse">
<stop stop-color="#CF24FC"/>
<stop offset="1" stop-color="#9C31EF"/>
</linearGradient>
<linearGradient id="paint22_linear_59_1848" x1="284.366" y1="30.8304" x2="342.56" y2="59.4552" gradientUnits="userSpaceOnUse">
<stop stop-color="#D31027"/>
<stop offset="1" stop-color="#EA384D"/>
</linearGradient>
<linearGradient id="paint23_linear_59_1848" x1="350.861" y1="69.7379" x2="403.448" y2="134.579" gradientUnits="userSpaceOnUse">
<stop stop-color="#02AAB0"/>
<stop offset="1" stop-color="#00CDAC"/>
</linearGradient>
<linearGradient id="paint24_linear_59_1848" x1="284.366" y1="30.8304" x2="342.56" y2="59.4552" gradientUnits="userSpaceOnUse">
<stop stop-color="#4974E6"/>
<stop offset="1" stop-color="#8B55E9"/>
</linearGradient>
<linearGradient id="paint25_linear_59_1848" x1="350.861" y1="69.7379" x2="403.448" y2="134.579" gradientUnits="userSpaceOnUse">
<stop stop-color="#CF24FC"/>
<stop offset="1" stop-color="#9C31EF"/>
</linearGradient>
<linearGradient id="paint26_linear_59_1848" x1="284.366" y1="30.8304" x2="342.56" y2="59.4552" gradientUnits="userSpaceOnUse">
<stop stop-color="#D31027"/>
<stop offset="1" stop-color="#EA384D"/>
</linearGradient>
<linearGradient id="paint27_linear_59_1848" x1="350.861" y1="69.7379" x2="403.448" y2="134.579" gradientUnits="userSpaceOnUse">
<stop stop-color="#02AAB0"/>
<stop offset="1" stop-color="#00CDAC"/>
</linearGradient>
<linearGradient id="paint28_linear_59_1848" x1="284.366" y1="30.8304" x2="342.56" y2="59.4552" gradientUnits="userSpaceOnUse">
<stop stop-color="#4974E6"/>
<stop offset="1" stop-color="#8B55E9"/>
</linearGradient>
<linearGradient id="paint29_linear_59_1848" x1="350.861" y1="69.7379" x2="403.448" y2="134.579" gradientUnits="userSpaceOnUse">
<stop stop-color="#CF24FC"/>
<stop offset="1" stop-color="#9C31EF"/>
</linearGradient>
<linearGradient id="paint30_linear_59_1848" x1="284.366" y1="30.8304" x2="342.56" y2="59.4552" gradientUnits="userSpaceOnUse">
<stop stop-color="#D31027"/>
<stop offset="1" stop-color="#EA384D"/>
</linearGradient>
<linearGradient id="paint31_linear_59_1848" x1="284.366" y1="30.8304" x2="342.56" y2="59.4552" gradientUnits="userSpaceOnUse">
<stop stop-color="#D31027"/>
<stop offset="1" stop-color="#EA384D"/>
</linearGradient>
</defs>
</svg>
