<svg width="14" height="14" viewBox="0 0 14 14" fill="none" xmlns="http://www.w3.org/2000/svg">
<path d="M9.7316 0C7.37423 0 5.4632 1.05385 5.4632 2.35573C5.4632 3.65761 7.37478 4.71201 9.7316 4.71201C12.089 4.71201 14 3.65761 14 2.35573C14 1.05385 12.0884 0 9.7316 0ZM14 3.05557C13.9989 4.35745 12.089 5.41185 9.7316 5.41185C7.38079 5.41185 5.47413 4.36892 5.4632 3.07305V3.99469C5.4632 4.55085 5.8194 5.06002 6.40287 5.4632C6.9929 5.62382 7.51846 5.84672 7.95606 6.12862C8.49856 6.26629 9.09514 6.35042 9.7316 6.35042C12.089 6.35042 14 5.29657 14 3.99469V3.05557ZM14 4.69453C14 5.99641 12.089 7.05081 9.7316 7.05081C9.44478 7.05081 9.16616 7.0295 8.89519 6.99945C9.10902 7.28743 9.25489 7.62007 9.32186 7.97245C9.4579 7.9801 9.59229 7.98939 9.7316 7.98939C12.089 7.98939 14 6.93553 14 5.63365V4.69453ZM4.2684 6.00897C1.91103 6.00897 0 7.06337 0 8.36525C0 9.66713 1.91157 10.7215 4.2684 10.7215C6.62577 10.7215 8.5368 9.66713 8.5368 8.36525C8.5368 7.06337 6.62523 6.00897 4.2684 6.00897ZM14 6.33349C13.9989 7.63537 12.089 8.68977 9.7316 8.68977C9.59447 8.68977 9.45571 8.67993 9.32186 8.67229C9.31585 8.71326 9.31257 8.76789 9.30492 8.80886C9.33224 8.89136 9.35573 8.97276 9.35573 9.06564V9.61196C9.47975 9.61797 9.60431 9.62835 9.7316 9.62835C12.089 9.62835 14 8.57449 14 7.27261V6.33349ZM14 7.97245C13.9989 9.27433 12.089 10.3287 9.7316 10.3287C9.59447 10.3287 9.45571 10.3189 9.32186 10.3112C9.31585 10.3522 9.31257 10.4069 9.30492 10.4478C9.33224 10.5298 9.35573 10.6117 9.35573 10.7046V11.2509C9.47975 11.2569 9.60431 11.2673 9.7316 11.2673C12.089 11.2673 14 10.2135 14 8.91157V7.97245ZM8.5368 9.06509C8.53571 10.367 6.62577 11.4214 4.2684 11.4214C1.91758 11.4214 0.0109264 10.3784 0 9.08203V10.0042C0 11.3061 1.91048 12.3605 4.2684 12.3605C6.62632 12.3605 8.5368 11.3061 8.5368 10.0042V9.06509ZM8.5368 10.704C8.53571 12.0059 6.62577 13.0603 4.2684 13.0603C1.91758 13.0603 0.0109264 12.0174 0 10.721V11.6432C0 12.9451 1.91048 13.9995 4.2684 13.9995C6.62632 13.9995 8.5368 12.9451 8.5368 11.6432V10.704Z" fill="white" fill-opacity="0.17"/>
</svg>
