<svg width="208" height="384" viewBox="0 0 208 384" fill="none" xmlns="http://www.w3.org/2000/svg">
<path d="M4.99071 0.261719C30.6779 0.261719 56.1098 5.28897 79.813 15.0522C103.516 24.8155 125.02 39.1207 143.078 57.1391C161.135 75.1574 175.389 96.5309 185.012 120.021C194.635 143.511 203.382 169.135 203.084 194.468C202.785 219.802 193.448 244.342 183.275 267.605C173.101 290.869 158.349 311.91 139.871 329.51C121.394 347.11 99.5599 360.919 75.6332 370.137C51.7066 379.355 26.1632 383.798 0.48291 383.21L0.551826 380.283C25.8394 380.862 50.9922 376.486 74.553 367.409C98.1139 358.332 119.614 344.735 137.809 327.404C156.004 310.073 170.531 289.353 180.548 266.446C190.566 243.538 195.876 218.897 196.169 193.951C196.463 169.005 191.735 144.249 182.259 121.118C172.783 97.9871 158.748 76.9405 140.966 59.1976C123.184 41.4547 102.01 27.3683 78.669 17.7543C55.3281 8.14035 30.2851 3.18994 4.99071 3.18994V0.261719Z" fill="url(#paint0_linear_59_1814)"/>
<path d="M205.786 190.656C206.917 191.3 207.483 191.622 207.483 192.105C207.483 192.589 206.917 192.911 205.786 193.555L202.817 195.246V188.965L205.786 190.656Z" fill="url(#paint1_linear_59_1814)"/>
<defs>
<linearGradient id="paint0_linear_59_1814" x1="145.562" y1="52.9835" x2="194.587" y2="327.177" gradientUnits="userSpaceOnUse">
<stop stop-color="white" stop-opacity="0"/>
<stop offset="0.496505" stop-color="white"/>
<stop offset="1" stop-color="white" stop-opacity="0"/>
</linearGradient>
<linearGradient id="paint1_linear_59_1814" x1="145.562" y1="52.9835" x2="194.587" y2="327.177" gradientUnits="userSpaceOnUse">
<stop stop-color="white" stop-opacity="0"/>
<stop offset="0.496505" stop-color="white"/>
<stop offset="1" stop-color="white" stop-opacity="0"/>
</linearGradient>
</defs>
</svg>
