<svg width="414" height="415" viewBox="0 0 414 415" fill="none" xmlns="http://www.w3.org/2000/svg">
<path d="M338.434 364.282C339.24 365.244 339.113 366.679 338.141 367.474C330.037 374.106 321.44 380.112 312.425 385.441C311.345 386.079 309.954 385.705 309.327 384.617C308.7 383.529 309.074 382.14 310.155 381.501C318.941 376.305 327.322 370.45 335.223 363.987C336.195 363.192 337.628 363.319 338.434 364.282Z" fill="url(#paint0_linear_59_1848)"/>
<path d="M305.717 386.649C306.321 387.75 305.92 389.133 304.814 389.726C295.582 394.668 285.987 398.903 276.114 402.391C274.93 402.809 273.638 402.173 273.232 400.985C272.827 399.797 273.462 398.506 274.646 398.088C284.27 394.684 293.623 390.557 302.623 385.741C303.73 385.149 305.112 385.549 305.717 386.649Z" fill="url(#paint1_linear_59_1848)"/>
<path d="M269.92 402.083C270.305 403.278 269.648 404.56 268.449 404.932C258.447 408.032 248.223 410.368 237.867 411.918C236.625 412.104 235.477 411.234 235.305 409.991C235.132 408.747 236.001 407.601 237.243 407.414C247.338 405.9 257.304 403.624 267.055 400.604C268.255 400.233 269.535 400.888 269.92 402.083Z" fill="url(#paint2_linear_59_1848)"/>
<path d="M231.776 410.448C231.927 411.695 231.039 412.828 229.791 412.965C219.381 414.107 208.9 414.455 198.438 414.008C197.183 413.954 196.222 412.882 196.289 411.628C196.356 410.375 197.427 409.414 198.682 409.468C208.881 409.901 219.098 409.561 229.245 408.451C230.493 408.315 231.626 409.202 231.776 410.448Z" fill="url(#paint3_linear_59_1848)"/>
<path d="M192.682 411.402C192.592 412.655 191.504 413.598 190.253 413.495C179.817 412.633 169.461 410.979 159.276 408.547C158.054 408.256 157.315 407.02 157.62 405.802C157.924 404.584 159.159 403.845 160.38 404.137C170.31 406.505 180.404 408.117 190.578 408.96C191.829 409.063 192.772 410.15 192.682 411.402Z" fill="url(#paint4_linear_59_1848)"/>
<path d="M155.202 405.181C154.882 406.395 153.638 407.121 152.428 406.788C142.331 404.009 132.46 400.467 122.901 396.192C121.755 395.68 121.256 394.328 121.781 393.188C122.307 392.048 123.656 391.55 124.802 392.062C134.122 396.227 143.744 399.68 153.586 402.391C154.796 402.725 155.521 403.967 155.202 405.181Z" fill="url(#paint5_linear_59_1848)"/>
<path d="M118.664 391.721C118.12 392.852 116.761 393.329 115.635 392.772C106.249 388.129 97.2292 382.78 88.6538 376.77C87.6257 376.049 87.3927 374.628 88.1246 373.607C88.8564 372.587 90.2759 372.355 91.3042 373.075C99.6651 378.932 108.458 384.147 117.606 388.675C118.732 389.232 119.208 390.589 118.664 391.721Z" fill="url(#paint6_linear_59_1848)"/>
<path d="M85.5779 371.751C84.8304 372.759 83.4059 372.972 82.4055 372.214C74.061 365.887 66.2094 358.935 58.9186 351.418C58.0445 350.517 58.0832 349.077 58.994 348.213C59.9048 347.349 61.3427 347.387 62.217 348.288C69.326 355.614 76.9797 362.391 85.1126 368.56C86.1128 369.319 86.3254 370.742 85.5779 371.751Z" fill="url(#paint7_linear_59_1848)"/>
<path d="M56.6728 345.725C55.7478 346.574 54.3088 346.513 53.4701 345.579C46.4752 337.786 40.0827 329.473 34.3479 320.711C33.6603 319.66 33.9711 318.254 35.0291 317.578C36.0871 316.902 37.4917 317.212 38.1795 318.263C43.772 326.802 50.0034 334.906 56.8202 342.505C57.6586 343.439 57.5979 344.876 56.6728 345.725Z" fill="url(#paint8_linear_59_1848)"/>
<path d="M33.6896 315.452C32.6234 316.115 31.2205 315.789 30.5693 314.715C25.1383 305.762 20.3957 296.409 16.3824 286.736C15.9012 285.577 16.467 284.252 17.6319 283.784C18.7967 283.316 20.1195 283.881 20.601 285.04C24.5155 294.468 29.1387 303.585 34.4307 312.315C35.0816 313.388 34.7558 314.789 33.6896 315.452Z" fill="url(#paint9_linear_59_1848)"/>
<path d="M16.9446 282.052C15.7755 282.51 14.4555 281.933 14.0106 280.759C10.3002 270.967 7.33943 260.907 5.1539 250.665C4.89187 249.437 5.68934 248.238 6.92 247.99C8.15067 247.741 9.34847 248.538 9.61081 249.765C11.7438 259.748 14.6299 269.555 18.2445 279.102C18.6891 280.276 18.1137 281.594 16.9446 282.052Z" fill="url(#paint10_linear_59_1848)"/>
<path d="M6.47498 245.72C5.24158 245.954 4.05027 245.145 3.82929 243.909C1.98612 233.6 0.929132 223.167 0.667444 212.698C0.636069 211.443 1.64082 210.411 2.89621 210.394C4.15159 210.376 5.18218 211.379 5.21387 212.635C5.47149 222.839 6.50185 233.01 8.29609 243.059C8.51677 244.295 7.70838 245.485 6.47498 245.72Z" fill="url(#paint11_linear_59_1848)"/>
<path d="M2.8762 207.534C1.62069 207.534 0.601598 206.516 0.615408 205.261C0.730598 194.789 1.6415 184.342 3.34025 174.009C3.54392 172.77 4.72379 171.944 5.96035 172.161C7.19691 172.378 8.02187 173.557 7.81851 174.796C6.16504 184.869 5.27709 195.053 5.16227 205.261C5.14815 206.516 4.1317 207.534 2.8762 207.534Z" fill="url(#paint12_linear_59_1848)"/>
<path d="M6.63301 168.526C5.40059 168.287 4.59447 167.093 4.84763 165.863C6.95912 155.606 9.84715 145.525 13.4868 135.706C13.9231 134.529 15.239 133.943 16.4113 134.392C17.5837 134.842 18.1686 136.156 17.7325 137.333C14.187 146.906 11.3717 156.733 9.31092 166.731C9.05746 167.961 7.86544 168.766 6.63301 168.526Z" fill="url(#paint13_linear_59_1848)"/>
<path d="M17.9416 130.518C16.7787 130.045 16.2182 128.718 16.7041 127.56C20.7564 117.904 25.5368 108.57 31.004 99.6388C31.6595 98.568 33.0637 98.2474 34.1272 98.9146C35.1907 99.5818 35.5109 100.984 34.8557 102.055C29.5284 110.763 24.8684 119.862 20.9158 129.274C20.4296 130.431 19.1046 130.991 17.9416 130.518Z" fill="url(#paint14_linear_59_1848)"/>
<path d="M35.9848 96.0084C34.9327 95.3233 34.634 93.9143 35.3306 92.8698C41.1408 84.1576 47.6047 75.8997 54.6666 68.1673C55.5133 67.2402 56.9528 67.1918 57.8705 68.0486C58.7882 68.9054 58.8365 70.343 57.9901 71.2703C51.1079 78.8096 44.8069 86.8595 39.141 95.3508C38.4441 96.3951 37.0369 96.6935 35.9848 96.0084Z" fill="url(#paint15_linear_59_1848)"/>
<path d="M60.3206 65.4697C59.418 64.597 59.3928 63.157 60.2753 62.264C67.6362 54.8159 75.5526 47.938 83.956 41.6898C84.9635 40.9407 86.386 41.1669 87.124 42.1826C87.862 43.1983 87.636 44.6189 86.6287 45.3683C78.4385 51.4611 70.7215 58.1656 63.5443 65.4243C62.6615 66.3171 61.2233 66.3424 60.3206 65.4697Z" fill="url(#paint16_linear_59_1848)"/>
<path d="M91.4686 39.1114C90.7573 38.0769 91.0187 36.6605 92.061 35.9606C100.755 30.1231 109.88 24.9548 119.357 20.5004C120.493 19.9664 121.842 20.4706 122.364 21.6126C122.885 22.7547 122.381 24.1021 121.245 24.6364C112.008 28.9809 103.113 34.019 94.637 39.7073C93.5945 40.4069 92.1799 40.146 91.4686 39.1114Z" fill="url(#paint17_linear_59_1848)"/>
<path d="M127.482 19.3596C126.991 18.2037 127.531 16.8681 128.692 16.3908C138.377 12.4094 148.351 9.16993 158.528 6.70035C159.748 6.40426 160.969 7.16805 161.251 8.39132C161.534 9.6146 160.771 10.8341 159.551 11.1305C149.632 13.5403 139.909 16.6982 130.467 20.5769C129.305 21.054 127.972 20.5155 127.482 19.3596Z" fill="url(#paint18_linear_59_1848)"/>
<path d="M164.521 7.66406C164.258 6.43632 165.04 5.2269 166.271 4.97785C176.535 2.90063 186.941 1.6065 197.401 1.10666C198.655 1.04673 199.71 2.02774 199.756 3.2824C199.802 4.53705 198.822 5.59022 197.568 5.65045C187.372 6.14023 177.227 7.40175 167.222 9.42417C165.991 9.67291 164.783 8.8918 164.521 7.66406Z" fill="url(#paint19_linear_59_1848)"/>
<path d="M207.266 3.14439C207.266 1.88888 208.283 0.869786 209.539 0.883597C220.01 0.998784 230.457 1.90967 240.79 3.60838C242.029 3.81204 242.855 4.99191 242.638 6.22847C242.421 7.46503 241.242 8.28999 240.003 8.08663C229.93 6.43321 219.746 5.54527 209.539 5.43046C208.283 5.41634 207.266 4.39989 207.266 3.14439Z" fill="url(#paint20_linear_59_1848)"/>
<path d="M247.343 7.11218C247.589 5.88105 248.787 5.08132 250.016 5.34103C260.261 7.50719 270.327 10.4489 280.126 14.1408C281.301 14.5834 281.879 15.9024 281.424 17.0723C280.968 18.2423 279.651 18.8202 278.476 18.3778C268.923 14.7813 259.111 11.9137 249.124 9.79963C247.896 9.53961 247.097 8.34331 247.343 7.11218Z" fill="url(#paint21_linear_59_1848)"/>
<path d="M285.744 18.8113C286.226 17.6521 287.557 17.1019 288.711 17.5967C298.335 21.7236 307.632 26.576 316.521 32.112C317.586 32.7758 317.896 34.1824 317.221 35.2407C316.545 36.2991 315.14 36.6083 314.075 35.9449C305.408 30.5504 296.346 25.8203 286.965 21.795C285.811 21.2999 285.262 19.9706 285.744 18.8113Z" fill="url(#paint22_linear_59_1848)"/>
<path d="M322.211 38.5294C322.918 37.4913 324.332 37.2211 325.363 37.9385C333.956 43.9226 342.082 50.5511 349.671 57.7669C350.581 58.632 350.601 60.0722 349.725 60.9725C348.85 61.8728 347.412 61.8922 346.502 61.0273C339.103 53.9951 331.181 47.5336 322.806 41.6982C321.775 40.9805 321.505 39.5676 322.211 38.5294Z" fill="url(#paint23_linear_59_1848)"/>
<path d="M354.973 66.2622C355.88 65.3944 357.32 65.4256 358.178 66.3424C365.332 73.9892 371.895 82.1687 377.809 90.8102C378.518 91.8463 378.237 93.2588 377.193 93.9565C376.149 94.6541 374.738 94.3728 374.029 93.3369C368.261 84.9144 361.864 76.941 354.892 69.4851C354.034 68.5681 354.065 67.13 354.973 66.2622Z" fill="url(#paint24_linear_59_1848)"/>
<path d="M379.964 98.2169C381.025 97.5454 382.431 97.8604 383.09 98.9285C388.594 107.838 393.411 117.152 397.503 126.792C397.993 127.947 397.438 129.276 396.277 129.754C395.116 130.232 393.789 129.678 393.298 128.522C389.307 119.126 384.611 110.046 379.249 101.36C378.589 100.292 378.903 98.8884 379.964 98.2169Z" fill="url(#paint25_linear_59_1848)"/>
<path d="M398.229 134.677C399.402 134.229 400.717 134.817 401.151 135.995C404.776 145.819 407.649 155.904 409.745 166.164C409.997 167.394 409.189 168.587 407.956 168.825C406.723 169.062 405.532 168.255 405.281 167.025C403.235 157.025 400.434 147.193 396.903 137.615C396.469 136.437 397.056 135.124 398.229 134.677Z" fill="url(#paint26_linear_59_1848)"/>
<path d="M409.106 175.353C410.345 175.155 411.512 176 411.696 177.242C413.231 187.6 413.976 198.061 413.926 208.532C413.92 209.788 412.885 210.789 411.629 210.769C410.374 210.749 409.374 209.716 409.38 208.46C409.426 198.252 408.7 188.056 407.206 177.958C407.022 176.716 407.866 175.55 409.106 175.353Z" fill="url(#paint27_linear_59_1848)"/>
<path d="M411.347 218.744C412.601 218.813 413.563 219.885 413.48 221.138C412.791 231.587 411.308 241.968 409.045 252.193C408.774 253.418 407.551 254.178 406.328 253.894C405.105 253.609 404.346 252.387 404.617 251.161C406.82 241.194 408.266 231.074 408.94 220.888C409.023 219.636 410.094 218.675 411.347 218.744Z" fill="url(#paint28_linear_59_1848)"/>
<path d="M404.44 261.358C405.652 261.689 406.367 262.939 406.023 264.147C403.154 274.218 399.524 284.057 395.164 293.577C394.642 294.719 393.286 295.205 392.15 294.67C391.014 294.135 390.529 292.781 391.051 291.639C395.299 282.357 398.838 272.766 401.636 262.949C401.981 261.742 403.229 261.028 404.44 261.358Z" fill="url(#paint29_linear_59_1848)"/>
<path d="M389.922 299.249C391.044 299.813 391.498 301.179 390.922 302.295C386.12 311.601 380.618 320.529 374.464 329.001C373.726 330.017 372.301 330.225 371.293 329.476C370.285 328.727 370.077 327.304 370.815 326.288C376.812 318.028 382.176 309.325 386.859 300.255C387.435 299.139 388.8 298.686 389.922 299.249Z" fill="url(#paint30_linear_59_1848)"/>
<path d="M367.451 334.481C368.435 335.261 368.601 336.692 367.811 337.667C361.217 345.802 354.014 353.424 346.265 360.467C345.336 361.312 343.898 361.226 343.064 360.288C342.23 359.349 342.315 357.914 343.244 357.069C350.796 350.201 357.818 342.771 364.247 334.843C365.038 333.868 366.467 333.701 367.451 334.481Z" fill="url(#paint31_linear_59_1848)"/>
<defs>
<linearGradient id="paint0_linear_59_1848" x1="341.86" y1="61.7379" x2="394.448" y2="126.579" gradientUnits="userSpaceOnUse">
<stop stop-color="#02AAB0"/>
<stop offset="1" stop-color="#00CDAC"/>
</linearGradient>
<linearGradient id="paint1_linear_59_1848" x1="275.366" y1="22.8304" x2="333.56" y2="51.4552" gradientUnits="userSpaceOnUse">
<stop stop-color="#D31027"/>
<stop offset="1" stop-color="#EA384D"/>
</linearGradient>
<linearGradient id="paint2_linear_59_1848" x1="341.86" y1="61.7379" x2="394.448" y2="126.579" gradientUnits="userSpaceOnUse">
<stop stop-color="#02AAB0"/>
<stop offset="1" stop-color="#00CDAC"/>
</linearGradient>
<linearGradient id="paint3_linear_59_1848" x1="275.366" y1="22.8304" x2="333.56" y2="51.4552" gradientUnits="userSpaceOnUse">
<stop stop-color="#D31027"/>
<stop offset="1" stop-color="#EA384D"/>
</linearGradient>
<linearGradient id="paint4_linear_59_1848" x1="341.86" y1="61.7379" x2="394.448" y2="126.579" gradientUnits="userSpaceOnUse">
<stop stop-color="#02AAB0"/>
<stop offset="1" stop-color="#00CDAC"/>
</linearGradient>
<linearGradient id="paint5_linear_59_1848" x1="341.86" y1="61.7379" x2="394.448" y2="126.579" gradientUnits="userSpaceOnUse">
<stop stop-color="#02AAB0"/>
<stop offset="1" stop-color="#00CDAC"/>
</linearGradient>
<linearGradient id="paint6_linear_59_1848" x1="275.366" y1="22.8304" x2="333.56" y2="51.4552" gradientUnits="userSpaceOnUse">
<stop stop-color="#D31027"/>
<stop offset="1" stop-color="#EA384D"/>
</linearGradient>
<linearGradient id="paint7_linear_59_1848" x1="341.86" y1="61.7379" x2="394.448" y2="126.579" gradientUnits="userSpaceOnUse">
<stop stop-color="#02AAB0"/>
<stop offset="1" stop-color="#00CDAC"/>
</linearGradient>
<linearGradient id="paint8_linear_59_1848" x1="275.366" y1="22.8304" x2="333.56" y2="51.4552" gradientUnits="userSpaceOnUse">
<stop stop-color="#D31027"/>
<stop offset="1" stop-color="#EA384D"/>
</linearGradient>
<linearGradient id="paint9_linear_59_1848" x1="341.861" y1="61.7379" x2="394.448" y2="126.579" gradientUnits="userSpaceOnUse">
<stop stop-color="#02AAB0"/>
<stop offset="1" stop-color="#00CDAC"/>
</linearGradient>
<linearGradient id="paint10_linear_59_1848" x1="275.366" y1="22.8304" x2="333.56" y2="51.4552" gradientUnits="userSpaceOnUse">
<stop stop-color="#D31027"/>
<stop offset="1" stop-color="#EA384D"/>
</linearGradient>
<linearGradient id="paint11_linear_59_1848" x1="341.861" y1="61.7379" x2="394.448" y2="126.579" gradientUnits="userSpaceOnUse">
<stop stop-color="#02AAB0"/>
<stop offset="1" stop-color="#00CDAC"/>
</linearGradient>
<linearGradient id="paint12_linear_59_1848" x1="275.366" y1="22.8304" x2="333.56" y2="51.4552" gradientUnits="userSpaceOnUse">
<stop stop-color="#D31027"/>
<stop offset="1" stop-color="#EA384D"/>
</linearGradient>
<linearGradient id="paint13_linear_59_1848" x1="341.861" y1="61.7379" x2="394.448" y2="126.579" gradientUnits="userSpaceOnUse">
<stop stop-color="#02AAB0"/>
<stop offset="1" stop-color="#00CDAC"/>
</linearGradient>
<linearGradient id="paint14_linear_59_1848" x1="275.366" y1="22.8304" x2="333.56" y2="51.4552" gradientUnits="userSpaceOnUse">
<stop stop-color="#D31027"/>
<stop offset="1" stop-color="#EA384D"/>
</linearGradient>
<linearGradient id="paint15_linear_59_1848" x1="341.861" y1="61.7379" x2="394.448" y2="126.579" gradientUnits="userSpaceOnUse">
<stop stop-color="#02AAB0"/>
<stop offset="1" stop-color="#00CDAC"/>
</linearGradient>
<linearGradient id="paint16_linear_59_1848" x1="275.366" y1="22.8304" x2="333.56" y2="51.4552" gradientUnits="userSpaceOnUse">
<stop stop-color="#D31027"/>
<stop offset="1" stop-color="#EA384D"/>
</linearGradient>
<linearGradient id="paint17_linear_59_1848" x1="341.861" y1="61.7379" x2="394.448" y2="126.579" gradientUnits="userSpaceOnUse">
<stop stop-color="#02AAB0"/>
<stop offset="1" stop-color="#00CDAC"/>
</linearGradient>
<linearGradient id="paint18_linear_59_1848" x1="275.366" y1="22.8304" x2="333.56" y2="51.4552" gradientUnits="userSpaceOnUse">
<stop stop-color="#D31027"/>
<stop offset="1" stop-color="#EA384D"/>
</linearGradient>
<linearGradient id="paint19_linear_59_1848" x1="341.861" y1="61.7379" x2="394.448" y2="126.579" gradientUnits="userSpaceOnUse">
<stop stop-color="#02AAB0"/>
<stop offset="1" stop-color="#00CDAC"/>
</linearGradient>
<linearGradient id="paint20_linear_59_1848" x1="275.366" y1="22.8304" x2="333.56" y2="51.4552" gradientUnits="userSpaceOnUse">
<stop stop-color="#D31027"/>
<stop offset="1" stop-color="#EA384D"/>
</linearGradient>
<linearGradient id="paint21_linear_59_1848" x1="341.861" y1="61.7379" x2="394.448" y2="126.579" gradientUnits="userSpaceOnUse">
<stop stop-color="#02AAB0"/>
<stop offset="1" stop-color="#00CDAC"/>
</linearGradient>
<linearGradient id="paint22_linear_59_1848" x1="275.366" y1="22.8304" x2="333.56" y2="51.4552" gradientUnits="userSpaceOnUse">
<stop stop-color="#D31027"/>
<stop offset="1" stop-color="#EA384D"/>
</linearGradient>
<linearGradient id="paint23_linear_59_1848" x1="341.861" y1="61.7379" x2="394.448" y2="126.579" gradientUnits="userSpaceOnUse">
<stop stop-color="#02AAB0"/>
<stop offset="1" stop-color="#00CDAC"/>
</linearGradient>
<linearGradient id="paint24_linear_59_1848" x1="275.366" y1="22.8304" x2="333.56" y2="51.4552" gradientUnits="userSpaceOnUse">
<stop stop-color="#D31027"/>
<stop offset="1" stop-color="#EA384D"/>
</linearGradient>
<linearGradient id="paint25_linear_59_1848" x1="341.861" y1="61.7379" x2="394.448" y2="126.579" gradientUnits="userSpaceOnUse">
<stop stop-color="#02AAB0"/>
<stop offset="1" stop-color="#00CDAC"/>
</linearGradient>
<linearGradient id="paint26_linear_59_1848" x1="275.366" y1="22.8304" x2="333.56" y2="51.4552" gradientUnits="userSpaceOnUse">
<stop stop-color="#D31027"/>
<stop offset="1" stop-color="#EA384D"/>
</linearGradient>
<linearGradient id="paint27_linear_59_1848" x1="341.861" y1="61.7379" x2="394.448" y2="126.579" gradientUnits="userSpaceOnUse">
<stop stop-color="#02AAB0"/>
<stop offset="1" stop-color="#00CDAC"/>
</linearGradient>
<linearGradient id="paint28_linear_59_1848" x1="275.366" y1="22.8304" x2="333.56" y2="51.4552" gradientUnits="userSpaceOnUse">
<stop stop-color="#D31027"/>
<stop offset="1" stop-color="#EA384D"/>
</linearGradient>
<linearGradient id="paint29_linear_59_1848" x1="341.861" y1="61.7379" x2="394.448" y2="126.579" gradientUnits="userSpaceOnUse">
<stop stop-color="#02AAB0"/>
<stop offset="1" stop-color="#00CDAC"/>
</linearGradient>
<linearGradient id="paint30_linear_59_1848" x1="275.366" y1="22.8304" x2="333.56" y2="51.4552" gradientUnits="userSpaceOnUse">
<stop stop-color="#D31027"/>
<stop offset="1" stop-color="#EA384D"/>
</linearGradient>
<linearGradient id="paint31_linear_59_1848" x1="275.366" y1="22.8304" x2="333.56" y2="51.4552" gradientUnits="userSpaceOnUse">
<stop stop-color="#D31027"/>
<stop offset="1" stop-color="#EA384D"/>
</linearGradient>
</defs>
</svg>
