<svg width="196" height="224" viewBox="0 0 196 224" fill="none" xmlns="http://www.w3.org/2000/svg">
<path d="M160.007 62.2466V145.996M97.9201 3.06339C98.4003 2.97887 98.8916 2.97887 99.3718 3.06339L189.152 29.975C190.209 30.2956 191.136 30.9448 191.798 31.8284C192.461 32.712 192.825 33.7839 192.837 34.8883V123.105C192.944 134.852 190.578 146.49 185.894 157.264C181.209 168.037 174.311 177.705 165.646 185.638C148.896 201.494 125.613 212.605 99.3718 220.366C98.4272 220.666 97.413 220.666 96.4684 220.366C70.2268 212.605 47.056 201.494 30.1943 185.638C21.5297 177.705 14.631 168.037 9.94647 157.264C5.26194 146.49 2.89639 134.852 3.00348 123.105V34.8883C3.01531 33.7839 3.37899 32.712 4.04168 31.8284C4.70437 30.9448 5.63154 30.2956 6.68848 29.975L96.4684 3.28672C96.9486 3.2022 97.4399 3.2022 97.9201 3.28672V3.06339ZM48.1726 87.9298C51.3419 87.9298 54.44 88.8696 57.0752 90.6304C59.7103 92.3911 61.7642 94.8937 62.977 97.8218C64.1898 100.75 64.5072 103.972 63.8889 107.08C63.2706 110.188 61.7444 113.044 59.5034 115.285C57.2624 117.526 54.4072 119.052 51.2988 119.67C48.1904 120.288 44.9685 119.971 42.0404 118.758C39.1124 117.545 36.6098 115.492 34.849 112.856C33.0883 110.221 32.1485 107.123 32.1485 103.954C32.1485 99.7041 33.8367 95.6283 36.8418 92.6232C39.8469 89.6181 43.9227 87.9298 48.1726 87.9298ZM88.9309 87.9298C92.1002 87.9298 95.1983 88.8696 97.8335 90.6304C100.469 92.3911 102.522 94.8937 103.735 97.8218C104.948 100.75 105.265 103.972 104.647 107.08C104.029 110.188 102.503 113.044 100.262 115.285C98.0207 117.526 95.1655 119.052 92.0571 119.67C88.9487 120.288 85.7268 119.971 82.7987 118.758C79.8707 117.545 77.3681 115.492 75.6073 112.856C73.8466 110.221 72.9068 107.123 72.9068 103.954C72.9215 99.7086 74.6145 95.6413 77.6164 92.6394C80.6183 89.6375 84.6856 87.9445 88.9309 87.9298ZM129.633 87.9298C132.803 87.9298 135.901 88.8696 138.536 90.6304C141.171 92.3911 143.225 94.8937 144.438 97.8218C145.651 100.75 145.968 103.972 145.35 107.08C144.731 110.188 143.205 113.044 140.964 115.285C138.723 117.526 135.868 119.052 132.76 119.67C129.651 120.288 126.429 119.971 123.501 118.758C120.573 117.545 118.071 115.492 116.31 112.856C114.549 110.221 113.609 107.123 113.609 103.954C113.609 99.7041 115.298 95.6283 118.303 92.6232C121.308 89.6181 125.384 87.9298 129.633 87.9298Z" stroke="#F8F8F8" stroke-width="6" stroke-linecap="round" stroke-linejoin="round"/>
</svg>
