<svg width="214" height="214" viewBox="0 0 214 214" fill="none" xmlns="http://www.w3.org/2000/svg">
<path fill-rule="evenodd" clip-rule="evenodd" d="M116.727 126.455H126.455V136.182H116.727V126.455ZM126.455 136.182H136.182V145.909H126.455V136.182ZM126.455 145.909H136.182V155.636H126.455V145.909ZM145.909 145.909H155.636V155.636H145.909V145.909ZM145.909 155.636H155.636V165.364H145.909V155.636ZM116.727 145.909H126.455V155.636H116.727V145.909ZM136.182 145.909H145.909V155.636H136.182V145.909ZM136.182 155.636H145.909V165.364H136.182V155.636ZM165.364 145.909H175.091V155.636H165.364V145.909ZM165.364 136.182H175.091V145.909H165.364V136.182ZM175.091 126.455H184.818V136.182H175.091V126.455ZM155.636 145.909H165.364V155.636H155.636V145.909ZM155.636 155.636H165.364V165.364H155.636V155.636ZM145.909 165.364H155.636V175.091H145.909V165.364ZM136.182 165.364H145.909V175.091H136.182V165.364ZM155.636 165.364H165.364V175.091H155.636V165.364ZM165.364 165.364H175.091V175.091H165.364V165.364ZM145.909 175.091H155.636V184.818H145.909V175.091ZM126.455 175.091H136.182V184.818H126.455V175.091ZM136.182 175.091H145.909V184.818H136.182V175.091ZM116.727 175.091H126.455V184.818H116.727V175.091ZM116.727 184.818H126.455V194.545H116.727V184.818ZM126.455 194.545H136.182V204.273H126.455V194.545ZM136.182 194.545H145.909V204.273H136.182V194.545ZM155.636 194.545H165.364V204.273H155.636V194.545ZM165.364 194.545H175.091V204.273H165.364V194.545ZM155.636 175.091H165.364V184.818H155.636V175.091ZM165.364 175.091H175.091V184.818H165.364V175.091ZM175.091 165.364H184.818V175.091H175.091V165.364ZM175.091 155.636H184.818V165.364H175.091V155.636ZM175.091 184.818H184.818V194.545H175.091V184.818ZM175.091 175.091H184.818V184.818H175.091V175.091ZM184.818 165.364H194.545V175.091H184.818V165.364ZM184.818 155.636H194.545V165.364H184.818V155.636ZM194.545 184.818H204.273V194.545H194.545V184.818ZM194.545 165.364H204.273V175.091H194.545V165.364ZM194.545 175.091H204.273V184.818H194.545V175.091ZM175.091 145.909H184.818V155.636H175.091V145.909ZM116.727 155.636H126.455V165.364H116.727V155.636ZM107 155.636H116.727V165.364H107V155.636ZM107 165.364H116.727V175.091H107V165.364ZM126.455 165.364H136.182V175.091H126.455V165.364ZM97.2727 165.364H107V175.091H97.2727V165.364ZM116.727 165.364H126.455V175.091H116.727V165.364ZM97.2727 175.091H107V184.818H97.2727V175.091ZM97.2727 184.818H107V194.545H97.2727V184.818ZM97.2727 0H107V9.72727H97.2727V0ZM107 9.72727H116.727V19.4545H107V9.72727ZM97.2727 29.1818H107V38.9091H97.2727V29.1818ZM107 38.9091H116.727V48.6364H107V38.9091ZM97.2727 48.6364H107V58.3636H97.2727V48.6364ZM107 48.6364H116.727V58.3636H107V48.6364ZM107 58.3636H116.727V68.0909H107V58.3636ZM107 68.0909H116.727V77.8182H107V68.0909ZM97.2727 77.8182H107V87.5455H97.2727V77.8182ZM107 77.8182H116.727V87.5455H107V77.8182ZM97.2727 87.5455H107V97.2727H97.2727V87.5455ZM0 97.2727H9.72727V107H0V97.2727ZM9.72727 107H19.4545V116.727H9.72727V107ZM29.1818 97.2727H38.9091V107H29.1818V97.2727ZM29.1818 107H38.9091V116.727H29.1818V107ZM38.9091 97.2727H48.6364V107H38.9091V97.2727ZM48.6364 107H58.3636V116.727H48.6364V107ZM58.3636 97.2727H68.0909V107H58.3636V97.2727ZM68.0909 107H77.8182V116.727H68.0909V107ZM68.0909 97.2727H77.8182V107H68.0909V97.2727ZM77.8182 97.2727H87.5455V107H77.8182V97.2727ZM87.5455 97.2727H97.2727V107H87.5455V97.2727ZM97.2727 107H107V116.727H97.2727V107ZM116.727 107H126.455V116.727H116.727V107ZM126.455 97.2727H136.182V107H126.455V97.2727ZM136.182 97.2727H145.909V107H136.182V97.2727ZM145.909 97.2727H155.636V107H145.909V97.2727ZM136.182 116.727H145.909V126.455H136.182V116.727ZM116.727 204.273H126.455V214H116.727V204.273ZM107 204.273H116.727V214H107V204.273ZM107 116.727H116.727V126.455H107V116.727ZM97.2727 116.727H107V126.455H97.2727V116.727ZM97.2727 126.455H107V136.182H97.2727V126.455ZM97.2727 136.182H107V145.909H97.2727V136.182ZM204.273 126.455H214V136.182H204.273V126.455ZM194.545 136.182H204.273V145.909H194.545V136.182ZM204.273 155.636H214V165.364H204.273V155.636ZM155.636 116.727H165.364V126.455H155.636V116.727ZM165.364 107H175.091V116.727H165.364V107ZM204.273 107H214V116.727H204.273V107ZM204.273 116.727H214V126.455H204.273V116.727ZM194.545 116.727H204.273V126.455H194.545V116.727ZM204.273 194.545H214V204.273H204.273V194.545ZM194.545 204.273H204.273V214H194.545V204.273ZM175.091 204.273H184.818V214H175.091V204.273ZM204.273 204.273H214V214H204.273V204.273Z" fill="#F8F8F8"/>
<path fill-rule="evenodd" clip-rule="evenodd" d="M136.195 9.72607H204.286V77.817H136.195V9.72607ZM9.74023 9.72607H77.8311V77.817H9.74023V9.72607ZM9.74023 136.181H77.8311V204.271H9.74023V136.181ZM165.377 38.9079H175.104V48.6352H165.377V38.9079ZM38.922 38.9079H48.6493V48.6352H38.922V38.9079ZM38.922 165.362H48.6493V175.09H38.922V165.362Z" stroke="#F8F8F8" stroke-width="6"/>
</svg>
