<svg width="16" height="16" viewBox="0 0 16 16" fill="none" xmlns="http://www.w3.org/2000/svg">
<path d="M2.66699 14V3.33333C2.66699 2.96667 2.79766 2.65267 3.05899 2.39133C3.32033 2.13 3.6341 1.99956 4.00033 2H8.00033C8.36699 2 8.68099 2.13067 8.94233 2.392C9.20366 2.65333 9.3341 2.96711 9.33366 3.33333V8H10.0003C10.367 8 10.681 8.13067 10.9423 8.392C11.2037 8.65333 11.3341 8.96711 11.3337 9.33333V12.3333C11.3337 12.5222 11.3977 12.6807 11.5257 12.8087C11.6537 12.9367 11.8119 13.0004 12.0003 13C12.1892 13 12.3477 12.936 12.4757 12.808C12.6037 12.68 12.6674 12.5218 12.667 12.3333V7.53333C12.567 7.58889 12.4614 7.62511 12.3503 7.642C12.2392 7.65889 12.1225 7.66711 12.0003 7.66667C11.5337 7.66667 11.1392 7.50556 10.817 7.18333C10.4948 6.86111 10.3337 6.46667 10.3337 6C10.3337 5.64445 10.431 5.32489 10.6257 5.04133C10.8203 4.75778 11.0785 4.55511 11.4003 4.43333L10.0003 3.03333L10.7003 2.33333L13.167 4.73333C13.3337 4.9 13.4588 5.09445 13.5423 5.31667C13.6259 5.53889 13.6674 5.76667 13.667 6V12.3333C13.667 12.8 13.5059 13.1944 13.1837 13.5167C12.8614 13.8389 12.467 14 12.0003 14C11.5337 14 11.1392 13.8389 10.817 13.5167C10.4948 13.1944 10.3337 12.8 10.3337 12.3333V9H9.33366V14H2.66699ZM4.00033 6.66667H8.00033V3.33333H4.00033V6.66667ZM12.0003 6.66667C12.1892 6.66667 12.3477 6.60267 12.4757 6.47467C12.6037 6.34667 12.6674 6.18845 12.667 6C12.667 5.81111 12.603 5.65267 12.475 5.52467C12.347 5.39667 12.1888 5.33289 12.0003 5.33333C11.8114 5.33333 11.653 5.39733 11.525 5.52533C11.397 5.65333 11.3332 5.81156 11.3337 6C11.3337 6.18889 11.3977 6.34733 11.5257 6.47533C11.6537 6.60333 11.8119 6.66711 12.0003 6.66667Z" fill="#616578" fill-opacity="0.15"/>
</svg>
