<svg width="259" height="187" viewBox="0 0 259 187" fill="none" xmlns="http://www.w3.org/2000/svg">
<path d="M0 10C0 4.47715 4.47715 0 10 0H249C254.523 0 259 4.47715 259 10V173.115C259 179.944 252.308 184.764 245.831 182.6L243.919 181.961C241.862 181.274 239.638 181.274 237.581 181.961L225.606 185.962C223.588 186.636 221.408 186.649 219.381 185.999L206.686 181.925C204.618 181.261 202.391 181.289 200.34 182.003L189.696 185.712C187.32 186.54 184.719 186.442 182.412 185.437L175.687 182.508C173.321 181.478 170.648 181.402 168.228 182.296L159.337 185.582C156.878 186.491 154.16 186.398 151.769 185.323L146.222 182.829C143.508 181.608 140.391 181.66 137.719 182.97L133.382 185.097C130.905 186.311 128.036 186.449 125.454 185.476L116.838 182.23C114.565 181.374 112.06 181.374 109.787 182.23L100.65 185.672C98.378 186.528 95.872 186.528 93.5998 185.672L84.4627 182.23C82.1905 181.374 79.6845 181.374 77.4123 182.23L68.2752 185.672C66.003 186.528 63.497 186.528 61.2248 185.672L52.0877 182.23C49.8155 181.374 47.3095 181.374 45.0373 182.23L35.9002 185.672C33.628 186.528 31.122 186.528 28.8498 185.672L19.5343 182.163C17.3771 181.35 14.9979 181.35 12.8407 182.163C6.6319 184.502 0 179.913 0 173.278V10Z" fill="white" fill-opacity="0.06"/>
<path d="M0.5 10C0.5 4.75329 4.75329 0.5 10 0.5H249C254.247 0.5 258.5 4.75329 258.5 10V173.115C258.5 179.602 252.142 184.181 245.989 182.126L244.077 181.487C241.918 180.765 239.582 180.765 237.423 181.487L225.448 185.488C223.531 186.128 221.459 186.141 219.534 185.523L206.839 181.449C204.668 180.752 202.329 180.781 200.175 181.531L189.531 185.24C187.274 186.027 184.803 185.933 182.612 184.979L175.887 182.05C173.403 180.968 170.596 180.888 168.054 181.827L159.163 185.113C156.827 185.976 154.246 185.888 151.974 184.867L146.427 182.373C143.577 181.091 140.305 181.146 137.499 182.521L133.162 184.648C130.808 185.802 128.083 185.932 125.631 185.008L117.014 181.762C114.628 180.863 111.997 180.863 109.611 181.762L100.474 185.204C98.3153 186.017 95.9347 186.017 93.7761 185.204L84.6389 181.762C82.2531 180.863 79.6219 180.863 77.2361 181.762L68.0989 185.204C65.9403 186.017 63.5597 186.017 61.4011 185.204L52.2639 181.762C49.8781 180.863 47.2469 180.863 44.8611 181.762L35.7239 185.204C33.5653 186.017 31.1847 186.017 29.0261 185.204L19.7105 181.695C17.4397 180.84 14.9353 180.84 12.6645 181.695L12.8407 182.163L12.6645 181.695C6.78263 183.911 0.5 179.564 0.5 173.278V10Z" stroke="white" stroke-opacity="0.15"/>
</svg>
